<?xml version="1.0" standalone="no"?>
<!DOCTYPE svg PUBLIC "-//W3C//DTD SVG 20010904//EN"
 "http://www.w3.org/TR/2001/REC-SVG-20010904/DTD/svg10.dtd">
<svg version="1.0" xmlns="http://www.w3.org/2000/svg"
 width="509.000000pt" height="509.000000pt" viewBox="0 0 509.000000 509.000000"
 preserveAspectRatio="xMidYMid meet">
<metadata>
Created by potrace 1.11, written by Peter Selinger 2001-2013
</metadata>
<g transform="translate(0.000000,509.000000) scale(0.100000,-0.100000)"
fill="#000000" stroke="none">
<path d="M976 5074 c-3 -9 -4 -20 0 -25 7 -12 51 -11 59 1 4 6 21 17 38 24 32
14 32 14 -29 15 -48 1 -63 -3 -68 -15z"/>
<path d="M1114 5048 c-10 -24 -28 -60 -41 -80 -25 -41 -27 -48 -15 -48 5 0 19
21 31 48 12 26 36 63 53 82 l30 35 -6 -44 c-4 -24 -15 -68 -25 -97 -17 -52
-17 -53 3 -58 38 -10 63 -6 87 13 23 18 23 20 6 38 -17 20 -23 85 -11 117 10
27 40 18 67 -21 15 -21 40 -54 57 -73 l31 -35 -17 38 c-10 20 -21 37 -26 37
-4 0 -5 7 -2 15 4 8 -1 17 -10 21 -9 3 -14 10 -11 14 3 5 2 15 -1 24 -5 13
-23 16 -94 16 l-87 0 -19 -42z"/>
<path d="M4590 5075 c0 -9 -9 -15 -22 -15 -26 -1 -113 -37 -149 -62 -24 -17
-24 -17 11 -5 19 7 37 14 40 17 3 3 32 5 65 5 54 0 60 -2 58 -20 -1 -15 22
-37 96 -88 54 -37 111 -81 127 -97 55 -56 70 -32 29 49 -22 45 -62 87 -103
110 -13 7 -17 22 -16 65 l2 56 -69 0 c-55 0 -69 -3 -69 -15z m234 -231 c5 -14
4 -15 -9 -4 -17 14 -19 20 -6 20 5 0 12 -7 15 -16z"/>
<path d="M2615 4040 c-3 -6 1 -7 9 -4 18 7 21 14 7 14 -6 0 -13 -4 -16 -10z"/>
<path d="M2658 4033 c7 -3 16 -2 19 1 4 3 -2 6 -13 5 -11 0 -14 -3 -6 -6z"/>
<path d="M2720 4031 c0 -6 -20 -11 -46 -11 -27 0 -43 -4 -39 -10 3 -5 16 -10
28 -10 12 0 31 -7 41 -15 19 -14 18 -15 -13 -15 -18 0 -63 5 -101 11 -55 9
-74 9 -99 -2 -17 -8 -31 -17 -31 -20 0 -4 -7 -10 -16 -13 -15 -6 -15 -4 -3 11
8 10 20 22 27 26 14 9 16 47 3 47 -12 0 -130 -68 -155 -89 -28 -24 -56 -91
-56 -135 0 -36 32 -106 49 -106 4 0 13 -16 20 -36 7 -19 19 -38 27 -41 8 -3
14 -11 14 -19 0 -8 4 -14 9 -14 11 0 45 -33 108 -104 46 -52 54 -58 69 -45 15
12 16 10 9 -26 -4 -22 -8 -52 -10 -67 -1 -16 -3 -32 -4 -37 0 -5 -9 -17 -18
-27 -13 -13 -15 -18 -5 -22 8 -2 10 -8 4 -15 -5 -7 -12 -39 -16 -72 -3 -33 -9
-70 -12 -83 -5 -18 -2 -24 13 -28 12 -3 25 -24 36 -55 10 -28 29 -60 43 -71
44 -39 54 -62 43 -101 -16 -57 -124 -136 -137 -99 -2 7 -9 12 -16 12 -18 0
-60 48 -100 114 -39 64 -63 82 -116 81 -33 0 -35 -2 -38 -36 -3 -30 5 -46 44
-95 26 -32 69 -82 97 -110 27 -29 54 -61 60 -71 7 -11 33 -55 59 -98 l47 -78
-31 -36 c-44 -50 -70 -48 -128 9 -53 50 -138 216 -147 285 -8 54 -30 95 -52
95 -20 0 -45 -23 -35 -32 3 -4 -2 -20 -11 -38 -15 -30 -15 -34 16 -113 17 -45
42 -109 55 -142 12 -33 28 -89 35 -125 10 -56 9 -71 -5 -103 -11 -27 -21 -38
-33 -35 -13 2 -22 27 -39 103 -20 91 -52 198 -86 283 -7 17 -18 32 -25 32 -7
0 -13 7 -13 15 0 20 -13 19 -41 -4 l-23 -19 27 -91 c15 -50 30 -117 33 -148 5
-60 -9 -170 -18 -143 -3 8 -15 44 -26 80 -17 53 -20 59 -21 33 -1 -17 3 -43 9
-57 11 -30 -4 -46 -18 -19 -6 10 -13 45 -17 78 -3 33 -11 63 -17 66 -6 4 -8
15 -4 24 3 9 3 22 -1 28 -9 14 -9 15 -23 132 -14 111 -14 109 -12 168 2 53 17
63 27 17 4 -16 10 -30 14 -30 12 0 12 84 0 218 -11 111 -13 122 -30 117 -22
-7 -39 21 -39 64 0 16 -4 33 -10 36 -5 3 -10 15 -10 26 0 10 -5 19 -11 19 -8
0 -10 -15 -7 -44 5 -37 3 -43 -11 -39 -10 2 -25 20 -35 38 -21 38 -66 84 -66
67 0 -6 5 -14 10 -17 6 -3 10 -11 10 -16 0 -5 -10 0 -22 12 -13 11 -34 28 -46
37 -13 9 -27 25 -32 36 -6 17 -1 25 22 38 15 10 30 18 33 18 2 0 20 -14 40
-31 19 -17 35 -27 35 -22 0 15 -81 69 -123 82 -31 11 -44 10 -75 -2 -20 -8
-55 -13 -77 -12 -22 2 -45 -1 -52 -7 -7 -6 -18 -6 -31 1 -13 7 -27 6 -48 -5
-16 -9 -49 -17 -74 -18 -48 -3 -95 -23 -122 -52 -22 -25 -84 -152 -92 -188
-10 -42 -45 -83 -77 -90 -37 -7 -55 -36 -79 -127 -27 -102 -27 -267 0 -369 36
-135 95 -270 136 -315 13 -14 24 -30 24 -36 0 -5 4 -9 9 -9 5 0 14 -12 20 -27
6 -16 20 -44 32 -63 14 -23 19 -44 16 -66 -6 -35 4 -44 48 -44 18 0 41 -22 95
-92 l70 -91 -1 -118 c-1 -110 1 -123 25 -173 36 -73 187 -220 206 -200 4 5 13
25 19 45 12 36 49 65 73 57 7 -2 26 9 43 24 l30 28 -28 0 c-16 0 -26 4 -22 10
3 6 -1 13 -9 16 -9 3 -13 11 -9 17 4 7 -6 2 -21 -11 -16 -12 -36 -22 -45 -22
-9 0 -26 -7 -37 -15 -17 -12 -26 -12 -47 -2 l-25 12 40 15 c44 16 68 48 29 37
-31 -8 -24 23 9 40 14 7 21 13 16 13 -5 0 -1 9 9 20 23 26 6 26 -42 0 -45 -24
-73 -26 -73 -4 0 11 -6 14 -22 8 l-23 -7 20 24 c11 13 39 43 62 65 39 38 41
43 25 56 -43 37 -72 38 -119 2 -17 -13 -34 -24 -36 -24 -14 0 9 43 29 57 19
12 22 19 13 34 -6 13 -6 19 1 19 5 0 10 7 10 15 0 8 -6 14 -12 13 -7 -2 -12 3
-10 10 1 6 -3 11 -9 10 -7 -2 -21 24 -33 57 -26 75 -25 74 -41 52 -13 -18 -14
-18 -25 2 -9 17 -8 25 5 37 11 12 12 20 5 35 -11 20 -30 26 -30 9 0 -23 -19
-7 -38 33 -11 23 -32 54 -46 69 -14 15 -26 32 -26 37 0 6 -13 30 -30 54 -16
25 -30 50 -30 56 0 6 -4 11 -9 11 -5 0 -11 12 -14 28 -3 15 -23 70 -45 122
-36 87 -69 221 -58 238 2 4 7 42 10 85 5 69 3 78 -10 73 -13 -5 -15 -1 -9 21
7 32 32 63 50 63 6 0 19 -19 29 -42 9 -24 21 -51 26 -60 6 -10 19 -69 30 -133
12 -64 27 -132 34 -153 7 -20 16 -59 21 -87 8 -59 21 -85 40 -85 32 0 44 59
31 163 -6 51 -12 70 -27 77 -20 11 -26 40 -9 40 7 0 9 16 5 43 -3 23 -9 76
-15 117 -5 41 -14 99 -20 129 -5 29 -10 73 -10 97 0 34 -3 42 -15 38 -15 -6
-21 7 -8 19 3 4 8 19 9 33 2 14 13 41 26 59 24 36 68 64 68 44 0 -7 6 -6 17 2
9 8 14 9 10 3 -3 -6 0 -20 8 -30 8 -10 15 -32 15 -48 0 -27 1 -28 13 -12 12
16 14 7 15 -67 1 -62 -2 -86 -11 -84 -6 1 -13 -8 -15 -20 -2 -13 -8 -23 -13
-23 -14 0 -11 -52 5 -69 8 -9 24 -63 35 -120 12 -56 32 -140 45 -185 13 -44
29 -107 36 -139 6 -32 14 -56 17 -54 7 8 -30 227 -39 227 -4 0 -8 10 -8 23 1
21 1 22 15 3 14 -18 15 -14 16 50 0 50 3 62 9 44 4 -14 15 -41 24 -60 12 -28
15 -31 16 -12 0 12 5 22 10 22 6 0 8 15 5 38 -13 77 -14 405 -2 417 20 19 141
45 149 32 4 -7 3 -16 -2 -21 -13 -13 -13 -46 0 -46 6 0 10 8 10 17 0 14 4 12
17 -7 12 -17 13 -25 5 -28 -7 -2 -12 -10 -12 -18 0 -7 -12 -17 -26 -20 -26 -7
-26 -8 -21 -78 3 -39 10 -93 16 -121 5 -27 12 -84 15 -125 7 -110 27 -274 35
-280 3 -3 8 -39 9 -80 2 -41 8 -80 13 -86 5 -6 7 -13 4 -16 -9 -9 17 -68 29
-68 7 0 23 -12 37 -26 24 -27 24 -27 2 -22 -20 5 -22 3 -20 -48 2 -46 5 -54
25 -59 13 -3 20 -10 17 -16 -7 -10 62 -45 80 -40 5 1 15 -6 23 -16 13 -17 14
-17 8 4 -10 33 12 38 25 6 6 -15 13 -23 16 -17 2 8 15 6 38 -5 34 -16 50 -39
19 -27 -8 3 -12 2 -9 -4 3 -6 16 -10 28 -10 12 0 29 -4 37 -10 8 -5 19 -5 25
0 13 11 75 -28 75 -48 0 -7 4 -10 10 -7 5 3 17 -3 27 -15 10 -11 24 -20 32
-20 7 0 19 -7 26 -16 17 -24 55 -3 48 27 -4 13 -9 17 -16 10 -11 -11 -87 46
-87 67 0 19 24 14 38 -8 7 -11 21 -20 31 -20 11 0 23 -5 27 -11 4 -6 20 -9 39
-6 l32 5 0 -114 c0 -113 -10 -147 -23 -79 -5 29 -9 33 -20 24 -11 -9 -14 -8
-14 1 0 9 -7 7 -20 -5 -11 -10 -20 -24 -20 -31 0 -8 -16 -20 -36 -29 -24 -10
-33 -19 -27 -27 4 -7 6 -21 5 -30 -2 -12 3 -18 15 -18 11 0 23 -4 28 -9 6 -5
29 -11 52 -15 39 -6 43 -4 48 17 6 23 9 24 58 15 29 -5 56 -14 61 -18 14 -14
36 -81 36 -112 0 -14 3 -33 6 -42 7 -17 44 -22 44 -6 0 6 7 10 16 10 8 0 12 5
8 11 -4 8 -9 8 -17 0 -16 -16 -31 -13 -18 3 10 11 9 21 -3 45 -35 66 0 100 44
44 12 -16 25 -26 28 -23 15 11 12 -38 -3 -50 -19 -16 -20 -41 -1 -34 21 8 29
-28 17 -73 -7 -26 -26 -51 -61 -81 -27 -24 -50 -50 -50 -58 0 -19 -62 -47 -71
-32 -4 7 -31 2 -75 -13 -56 -18 -87 -22 -168 -20 -55 1 -104 5 -110 8 -5 4
-29 6 -51 4 -28 -1 -46 3 -54 13 -8 9 -19 16 -27 16 -7 0 -30 11 -50 25 -21
14 -51 25 -71 25 -31 0 -33 2 -27 25 12 47 -11 25 -28 -27 -17 -51 -17 -53 4
-75 31 -33 150 -89 243 -114 117 -32 281 -21 438 28 11 3 17 0 17 -10 0 -22
37 -28 113 -16 37 6 75 8 83 5 8 -3 49 13 92 36 42 23 117 61 166 85 118 58
156 86 253 182 45 44 108 97 140 118 67 44 91 68 153 153 30 41 59 68 87 82
51 24 222 164 255 210 55 74 158 287 172 355 15 74 11 143 -8 143 -9 0 -11 16
-8 56 4 45 1 61 -16 84 -21 28 -21 29 -3 52 46 58 90 155 100 221 11 73 -4
204 -33 298 -13 41 -55 109 -100 161 -8 9 -17 26 -21 37 -3 12 -17 29 -31 37
-13 9 -21 20 -18 25 13 21 -151 211 -206 239 -20 10 -77 57 -127 105 -114 108
-194 156 -293 175 -25 5 -77 22 -117 39 -40 17 -79 31 -87 31 -8 0 -35 11 -60
25 -25 14 -54 25 -66 25 -12 0 -29 4 -38 9 -28 14 -152 24 -152 12z m43 -58
c-7 -2 -19 -2 -25 0 -7 3 -2 5 12 5 14 0 19 -2 13 -5z m250 -24 c20 -5 37 -14
37 -19 0 -6 -19 -2 -42 7 -67 25 -64 32 5 12z m-438 -9 c3 -5 24 -10 46 -10
24 0 38 -4 34 -10 -3 -5 -17 -10 -29 -10 -13 0 -30 -7 -37 -17 -13 -15 -12
-15 10 -3 36 19 229 7 301 -18 55 -20 114 -44 160 -67 14 -7 38 -15 53 -19 15
-4 25 -11 22 -16 -8 -13 6 -13 25 0 12 8 12 10 1 10 -16 0 -101 67 -101 80 0
13 80 -32 124 -70 83 -73 110 -100 100 -100 -6 0 -32 16 -57 35 -25 19 -48 35
-50 35 -2 0 16 -21 40 -47 36 -40 40 -49 26 -54 -15 -5 -15 -6 2 -12 10 -4 15
-10 12 -14 -4 -3 -1 -13 6 -21 10 -13 9 -15 -11 -10 -13 4 -28 0 -37 -9 -8 -8
-15 -10 -15 -5 0 5 -11 12 -25 14 -17 4 -25 1 -25 -8 0 -8 -6 -14 -12 -15 -10
0 -10 -2 0 -6 6 -2 12 -10 12 -17 0 -7 10 -18 23 -25 13 -7 31 -24 40 -39 14
-24 17 -24 17 -7 1 16 4 14 18 -11 41 -73 51 -81 126 -95 48 -9 60 -7 96 11
37 19 45 30 40 55 -3 15 147 -128 154 -147 4 -10 13 -24 19 -30 20 -22 87
-159 87 -179 0 -14 7 -19 25 -19 14 0 25 -6 26 -12 0 -7 4 -4 9 7 4 11 4 24
-1 30 -12 12 -11 35 1 35 6 0 10 -8 10 -17 0 -30 38 -83 55 -77 15 6 25 -11
39 -69 10 -42 -16 -30 -31 14 -7 19 -12 28 -12 20 -1 -11 -4 -11 -14 3 -13 18
-37 19 -49 1 -4 -5 -42 26 -85 70 -123 126 -142 140 -162 128 -21 -13 -101 4
-114 24 -7 12 -37 19 -37 9 0 -14 14 -36 22 -36 5 0 24 -15 41 -33 18 -18 40
-38 50 -46 15 -12 17 -12 11 3 -9 23 3 20 37 -9 16 -13 36 -22 43 -19 8 3 16
-3 19 -15 3 -12 12 -21 20 -21 9 0 18 -13 22 -29 3 -16 13 -35 21 -42 8 -6 14
-17 14 -24 0 -7 9 -24 20 -38 22 -28 26 -42 9 -31 -7 4 -10 1 -7 -7 3 -8 13
-13 23 -11 12 3 16 -1 12 -12 -3 -8 -2 -18 4 -22 5 -3 7 -15 4 -25 -6 -18 -3
-20 29 -14 31 6 36 5 36 -12 0 -11 11 -32 25 -47 29 -31 30 -36 11 -36 -8 0
-29 17 -46 38 -21 24 -34 32 -37 24 -6 -16 -33 3 -33 23 0 8 -6 16 -12 18 -10
4 -10 7 -1 14 9 7 -2 23 -40 60 -28 27 -61 53 -72 57 -19 7 -19 8 -2 20 24 18
21 26 -8 26 -20 0 -25 5 -25 25 0 23 -10 30 -34 26 -4 -1 -6 12 -4 29 3 16 3
30 2 30 -18 0 -31 -15 -27 -31 4 -14 0 -19 -16 -19 -11 0 -21 -4 -21 -10 0
-18 -15 -11 -111 52 -123 81 -136 88 -171 88 -40 0 -32 -22 13 -33 19 -5 39
-13 44 -18 7 -7 2 -8 -15 -4 -28 6 -180 24 -281 31 -76 6 -125 -12 -175 -66
-16 -16 -39 -30 -51 -30 -12 0 -23 -5 -25 -12 -2 -6 -32 -12 -71 -14 -76 -4
-85 4 -88 72 -1 41 44 179 66 203 16 16 40 5 27 -12 -17 -22 -21 -57 -6 -57 8
0 11 6 7 16 -4 10 1 17 15 20 13 4 19 13 18 30 0 13 -5 24 -9 24 -5 0 -5 5 -2
11 5 6 11 4 19 -6 7 -10 18 -14 29 -9 20 7 23 24 4 24 -8 0 -24 9 -37 20 -26
22 -56 26 -62 8 -3 -8 -13 -5 -33 10 -15 12 -24 22 -19 22 4 0 3 5 -3 11 -6 6
-9 18 -6 25 3 8 0 14 -6 14 -6 0 -11 5 -11 11 0 12 -25 39 -36 39 -4 0 -16 7
-26 16 -14 14 -20 14 -33 4 -13 -11 -14 -10 -9 5 6 14 4 16 -7 10 -11 -7 -12
-6 -2 6 9 11 10 25 4 47 -5 17 -6 34 -3 38 4 4 1 4 -5 0 -7 -4 -13 -14 -13
-22 0 -8 -5 -14 -11 -14 -20 0 -4 45 21 57 24 12 25 13 3 13 -13 0 -23 4 -23
9 0 4 -12 20 -26 35 -23 23 -26 31 -21 73 8 63 12 81 20 89 4 4 2 13 -4 21 -9
9 -8 13 0 13 19 0 24 -27 11 -64 -17 -52 -4 -62 36 -26 19 16 39 30 44 30 5 0
25 14 45 32 38 33 34 48 -13 48 -13 0 -20 4 -17 10 3 6 17 10 30 10 13 0 27
-4 30 -10z m-148 -7 c16 -6 15 -8 -7 -13 -14 -4 -24 -12 -22 -18 3 -14 -17
-15 -38 -2 -13 8 -12 11 5 24 23 17 35 19 62 9z m270 -9 c-3 -3 -12 -4 -19 -1
-8 3 -5 6 6 6 11 1 17 -2 13 -5z m422 -20 c14 -12 -19 -1 -35 12 -18 14 -18
14 6 3 14 -6 27 -13 29 -15z m-774 -51 c-4 -42 -19 -88 -32 -96 -13 -8 9 117
22 125 5 4 11 8 12 8 1 0 0 -17 -2 -37z m11 -189 c13 -32 13 -36 1 -24 -8 8
-18 28 -22 45 -9 38 0 30 21 -21z m969 6 c3 -5 1 -10 -4 -10 -6 0 -11 5 -11
10 0 6 2 10 4 10 3 0 8 -4 11 -10z m112 -152 c37 -26 46 -43 38 -68 -7 -23
-52 -35 -71 -19 -17 14 -18 39 -1 40 6 0 2 4 -10 9 -34 14 -29 53 6 59 3 1 20
-9 38 -21z m-902 -38 c3 -5 1 -10 -4 -10 -6 0 -11 5 -11 10 0 6 2 10 4 10 3 0
8 -4 11 -10z m1095 -100 c0 -5 -2 -10 -4 -10 -3 0 -8 5 -11 10 -3 6 -1 10 4
10 6 0 11 -4 11 -10z m-2388 -53 c-18 -19 -39 -34 -48 -34 -22 0 -11 21 17 28
13 4 20 8 14 8 -9 2 33 30 44 31 3 0 -10 -15 -27 -33z m298 23 c0 -5 -6 -10
-14 -10 -8 0 -23 -3 -33 -6 -10 -3 -7 2 7 10 30 18 40 20 40 6z m29 -106 c17
-4 31 -10 31 -14 0 -11 -122 0 -134 11 -12 10 56 12 103 3z m1512 -172 c75
-10 76 -32 2 -33 -32 -1 -50 -3 -40 -6 9 -2 17 -8 17 -11 0 -4 35 -8 78 -10
90 -4 114 -17 48 -27 -25 -4 -46 -11 -46 -15 0 -4 -34 -8 -76 -8 -77 0 -116
-14 -74 -27 11 -4 26 -19 31 -33 13 -35 0 -44 -95 -66 -41 -10 -77 -24 -80
-32 -3 -8 -15 -14 -27 -14 -12 0 -28 -8 -36 -17 -13 -16 -14 -14 -9 22 3 22 9
51 12 64 6 21 4 22 -16 16 -15 -5 -20 -4 -16 4 4 6 12 11 18 11 7 0 40 14 74
31 59 30 62 33 53 56 -8 20 -7 24 5 20 8 -3 30 10 51 30 35 34 36 35 11 31
-37 -7 -41 7 -10 31 25 20 29 20 50 6 13 -8 47 -18 75 -23z m-1181 -48 c0 -8
-4 -12 -10 -9 -5 3 -10 10 -10 16 0 5 5 9 10 9 6 0 10 -7 10 -16z m880 -9 c0
-15 -6 -25 -14 -25 -24 0 -30 22 -11 37 25 17 25 17 25 -12z m1210 -7 c0 -13
10 -43 21 -67 30 -67 41 -128 28 -152 -9 -18 -24 -19 -24 -1 0 4 -9 25 -19 46
-10 22 -20 62 -21 90 -2 28 -4 56 -5 61 -5 22 1 45 10 45 6 0 10 -10 10 -22z
m-2990 -3 c0 -2 -9 -9 -20 -15 -16 -9 -18 -8 -14 5 5 13 34 22 34 10z m2595
-5 c3 -6 -1 -7 -9 -4 -18 7 -21 14 -7 14 6 0 13 -4 16 -10z m305 -63 c0 -6 8
-19 18 -30 12 -15 13 -18 2 -12 -18 10 -42 42 -53 69 -8 19 -7 19 13 1 11 -10
20 -23 20 -28z m-2189 -97 c6 -25 18 -55 25 -67 16 -26 35 -125 41 -212 3 -36
11 -74 18 -85 15 -24 23 -65 29 -151 5 -67 12 -102 26 -140 5 -14 6 -25 1 -25
-5 0 -11 7 -15 15 -3 8 -11 15 -18 15 -7 0 -19 9 -26 20 -7 12 -18 17 -28 13
-14 -5 -16 -1 -12 28 3 19 1 69 -4 113 -8 63 -7 80 4 87 10 7 9 9 -4 9 -15 0
-18 9 -18 48 0 27 -7 63 -16 80 -8 18 -13 40 -10 49 11 37 8 121 -8 193 -24
113 -16 118 15 10z m1507 49 c35 -6 76 -18 91 -25 22 -12 28 -12 37 1 6 8 22
15 35 15 18 0 20 -3 11 -12 -20 -20 -14 -26 33 -33 36 -6 56 -18 105 -65 33
-32 60 -62 60 -68 0 -5 16 -17 36 -27 23 -11 32 -20 25 -24 -9 -6 -8 -11 3
-20 11 -9 13 -19 6 -36 -5 -14 -5 -27 -1 -29 5 -3 9 -16 9 -30 0 -13 9 -33 21
-45 12 -12 19 -26 16 -31 -4 -6 1 -10 9 -10 9 0 19 -12 22 -27 4 -16 13 -40
20 -54 9 -18 10 -37 4 -64 -10 -44 -7 -53 14 -36 9 8 21 8 40 1 28 -10 35 -30
11 -30 -8 0 -15 -7 -15 -15 0 -8 7 -15 15 -15 8 0 15 -6 15 -12 -1 -23 -37
-93 -63 -120 -28 -30 -42 -34 -53 -17 -4 6 -20 8 -40 5 -39 -8 -42 -4 -83 94
-14 35 -35 69 -46 75 -40 20 -62 40 -69 62 -4 13 -10 22 -14 22 -18 -3 -32 2
-32 11 0 5 7 7 15 4 10 -4 7 8 -10 41 -14 25 -25 53 -25 61 0 19 -26 18 -34
-1 -3 -8 -1 -27 5 -41 9 -26 9 -26 -13 -12 -13 9 -28 35 -35 59 -13 44 -13 44
6 20 10 -13 21 -19 24 -14 6 10 -30 55 -53 66 -22 10 -60 36 -122 84 -30 23
-68 43 -84 45 -25 3 -29 7 -30 33 0 17 -4 36 -7 42 -5 7 2 17 14 24 19 10 25
7 53 -24 25 -28 36 -34 59 -30 15 3 27 10 27 15 0 5 4 6 10 3 6 -3 7 1 4 9 -3
9 -1 16 4 16 15 0 61 47 54 54 -9 10 -42 7 -42 -4 0 -5 -5 -10 -10 -10 -6 0
-6 7 2 19 9 15 8 24 -6 45 -9 15 -21 24 -26 21 -5 -3 -28 0 -52 6 -24 6 -51
10 -60 10 -40 0 -13 24 31 28 8 0 43 -4 79 -10z m702 -19 c0 -5 7 -10 16 -10
9 0 14 -5 12 -12 -7 -21 -22 -18 -41 7 -15 22 -16 25 -2 25 8 0 15 -4 15 -10z
m-928 -312 c-7 -7 -12 -8 -12 -2 0 6 3 14 7 17 3 4 9 5 12 2 2 -3 -1 -11 -7
-17z m708 -14 c0 -8 -5 -12 -10 -9 -6 4 -8 11 -5 16 9 14 15 11 15 -7z m-711
-95 c133 -61 160 -79 231 -149 91 -89 141 -159 134 -187 -3 -11 1 -25 10 -32
18 -15 22 -87 5 -93 -13 -4 26 -88 41 -88 5 0 -3 -20 -18 -45 -26 -43 -47 -54
-47 -24 0 20 -26 54 -52 67 -12 7 -36 32 -54 57 -18 25 -38 45 -46 45 -7 0
-13 4 -13 9 0 5 -13 14 -29 21 -17 7 -31 21 -33 33 -2 11 -9 22 -16 25 -7 2
-10 -2 -6 -12 8 -20 -3 -21 -22 -1 -9 8 -26 15 -38 15 -13 0 -29 7 -36 15 -7
8 -19 15 -28 15 -13 0 -12 -3 2 -19 18 -19 17 -20 -10 -16 -16 1 -28 8 -27 14
3 11 -24 4 -44 -11 -12 -9 -33 18 -33 43 0 6 -8 18 -17 25 -10 7 -18 18 -18
26 0 7 -10 14 -22 14 -13 1 -30 7 -38 14 -8 7 -35 16 -60 21 -25 5 -64 17 -87
28 l-43 19 28 11 c16 6 34 11 40 11 7 0 21 7 31 15 10 8 22 12 26 10 4 -3 44
-5 89 -6 62 -1 84 2 97 15 9 10 15 18 13 20 -16 12 -95 36 -119 36 -17 0 -30
3 -30 8 0 4 47 5 105 4 90 -3 105 -2 105 12 0 8 -10 24 -22 36 -29 26 -8 26
51 -1z m825 -150 c-8 -13 -24 -1 -24 18 0 13 3 13 15 3 8 -7 12 -16 9 -21z
m-1269 -134 c63 -16 123 -40 219 -86 54 -26 60 -27 86 -14 25 13 29 12 44 -4
9 -10 16 -23 16 -29 0 -7 13 -23 29 -38 52 -46 139 -177 161 -244 21 -63 25
-168 7 -187 -11 -10 -48 46 -73 112 -6 16 -9 11 -11 -20 -6 -76 -35 -290 -44
-328 -11 -44 -40 -72 -72 -72 -12 0 -22 -5 -22 -12 0 -6 -3 -15 -7 -19 -5 -4
-8 2 -8 14 0 12 -5 22 -11 22 -7 0 -9 -10 -5 -27 4 -18 3 -23 -2 -15 -8 12
-14 12 -35 0 -14 -7 -25 -17 -25 -23 1 -5 -19 -20 -43 -33 -41 -22 -43 -22
-25 -3 11 12 14 21 9 21 -6 0 -16 -7 -23 -15 -14 -17 -20 -18 -39 -6 -12 8 -6
21 29 67 31 41 44 68 44 91 0 18 3 28 7 22 10 -16 16 -1 23 63 8 60 -6 156
-30 222 -15 38 -15 38 9 32 21 -5 24 -2 22 19 -2 13 -6 30 -10 37 -4 7 4 0 18
-17 24 -28 52 -31 30 -3 -6 7 -16 29 -22 48 -20 62 -41 80 -83 74 -44 -8 -50
-24 -38 -102 5 -31 8 -58 5 -60 -7 -8 -44 41 -51 68 -12 43 -44 54 -44 15 0
-14 -4 -25 -9 -25 -16 0 -20 27 -7 52 7 13 11 43 9 67 -2 23 1 48 7 55 8 10 5
12 -16 8 -16 -3 -29 1 -35 9 -8 14 -12 15 -44 18 -11 1 -15 14 -15 56 0 51 -2
56 -27 66 -18 7 -30 6 -37 -1 -7 -7 -4 -10 8 -10 19 0 45 -26 45 -45 0 -5 -6
-2 -14 9 -8 10 -21 16 -29 13 -8 -3 -20 1 -27 10 -11 13 -10 17 5 29 11 8 29
11 44 7 18 -4 23 -2 20 8 -3 8 -17 13 -31 12 l-26 -2 32 29 c18 16 26 30 20
30 -7 0 -13 -4 -13 -10 0 -5 -4 -10 -10 -10 -5 0 -10 7 -10 15 0 20 -17 19
-29 -2 -5 -10 -13 -14 -18 -10 -13 14 40 48 65 42 15 -4 22 -1 22 10 0 19 11
19 85 0z m-372 -171 c27 -25 31 -44 11 -51 -13 -4 -64 45 -64 62 0 23 22 18
53 -11z m-103 -44 c0 -5 -2 -10 -4 -10 -3 0 -8 5 -11 10 -3 6 -1 10 4 10 6 0
11 -4 11 -10z m280 -33 c0 -6 -9 -2 -20 8 -11 10 -20 23 -20 28 0 6 9 2 20 -8
11 -10 20 -23 20 -28z m1095 5 c6 -22 5 -22 -14 -10 -21 13 -27 29 -14 42 9 8
19 -3 28 -32z m-105 -132 c0 -5 -5 -10 -11 -10 -5 0 -7 5 -4 10 3 6 8 10 11
10 2 0 4 -4 4 -10z m-710 -115 c11 -13 10 -14 -4 -9 -9 3 -16 10 -16 15 0 13
6 11 20 -6z m-53 -31 c-3 -3 -12 -4 -19 -1 -8 3 -5 6 6 6 11 1 17 -2 13 -5z
m-312 -44 c-3 -5 -10 -10 -16 -10 -5 0 -9 5 -9 10 0 6 7 10 16 10 8 0 12 -4 9
-10z m777 -22 c-7 -7 -12 -8 -12 -2 0 14 12 26 19 19 2 -3 -1 -11 -7 -17z
m-15 -75 c-3 -10 -5 -4 -5 12 0 17 2 24 5 18 2 -7 2 -21 0 -30z m-1507 -13 c0
-5 -4 -10 -10 -10 -5 0 -10 5 -10 10 0 6 5 10 10 10 6 0 10 -4 10 -10z m660
-388 c0 -10 -58 -32 -73 -27 -50 14 -50 19 3 25 30 4 58 7 63 8 4 1 7 -2 7 -6z
m151 -33 c-33 -27 -67 -33 -104 -20 l-32 11 29 -4 c33 -4 84 10 105 30 8 7 17
11 20 8 3 -3 -5 -14 -18 -25z"/>
<path d="M2705 3880 c3 -5 8 -10 11 -10 2 0 4 5 4 10 0 6 -5 10 -11 10 -5 0
-7 -4 -4 -10z"/>
<path d="M2870 3710 c0 -10 33 -30 49 -30 22 0 10 18 -19 29 -17 5 -30 6 -30
1z"/>
<path d="M3080 3600 c0 -5 5 -10 11 -10 5 0 7 5 4 10 -3 6 -8 10 -11 10 -2 0
-4 -4 -4 -10z"/>
<path d="M3530 3330 c6 -11 15 -20 20 -20 14 0 1 28 -16 34 -12 4 -12 2 -4
-14z"/>
<path d="M3560 3290 c0 -5 7 -10 16 -10 8 0 12 5 9 10 -3 6 -10 10 -16 10 -5
0 -9 -4 -9 -10z"/>
<path d="M2706 3246 c3 -8 1 -17 -5 -21 -6 -3 -11 -15 -11 -26 0 -17 3 -18 20
-9 23 12 27 55 6 63 -10 4 -13 1 -10 -7z"/>
<path d="M3020 3221 l-35 -7 30 -7 c17 -4 50 -12 75 -18 25 -6 60 -15 78 -19
53 -13 33 9 -28 32 -72 26 -79 27 -120 19z"/>
<path d="M3610 3075 c7 -9 15 -13 17 -11 7 7 -7 26 -19 26 -6 0 -6 -6 2 -15z"/>
<path d="M3640 3040 c0 -5 7 -10 16 -10 8 0 12 5 9 10 -3 6 -10 10 -16 10 -5
0 -9 -4 -9 -10z"/>
<path d="M2978 3023 c6 -2 18 -2 25 0 6 3 1 5 -13 5 -14 0 -19 -2 -12 -5z"/>
<path d="M4005 2840 c-3 -5 1 -10 10 -10 9 0 13 5 10 10 -3 6 -8 10 -10 10 -2
0 -7 -4 -10 -10z"/>
<path d="M3350 2831 c0 -5 5 -13 10 -16 6 -3 10 -2 10 4 0 5 -4 13 -10 16 -5
3 -10 2 -10 -4z"/>
<path d="M3437 2728 c3 -18 13 -39 22 -46 22 -18 103 -54 109 -48 15 16 -13
55 -58 81 -27 16 -50 33 -50 37 0 4 -7 8 -15 8 -11 0 -13 -8 -8 -32z"/>
<path d="M3292 2715 c-9 -20 -8 -24 13 -29 53 -13 77 24 26 42 -25 9 -30 7
-39 -13z"/>
<path d="M3620 2591 c0 -5 5 -13 10 -16 6 -3 10 -2 10 4 0 5 -4 13 -10 16 -5
3 -10 2 -10 -4z"/>
<path d="M3581 2571 c-14 -4 -26 -12 -29 -19 -3 -10 5 -12 34 -6 47 8 48 9 32
21 -7 5 -24 7 -37 4z"/>
<path d="M3548 2518 c5 -7 13 -24 17 -37 7 -22 5 -23 -19 -19 -35 7 -40 -4
-15 -30 22 -24 49 -28 67 -10 16 16 15 29 -2 22 -11 -4 -13 0 -9 16 7 26 -15
70 -35 70 -10 0 -12 -4 -4 -12z"/>
<path d="M3450 2510 c0 -5 5 -10 11 -10 5 0 7 5 4 10 -3 6 -8 10 -11 10 -2 0
-4 -4 -4 -10z"/>
<path d="M3480 2474 c0 -8 5 -12 10 -9 6 4 8 11 5 16 -9 14 -15 11 -15 -7z"/>
<path d="M3010 2142 c0 -5 7 -13 16 -16 10 -4 14 -1 12 6 -5 15 -28 23 -28 10z"/>
<path d="M3190 2084 c0 -13 18 -39 24 -34 2 3 -2 14 -10 24 -8 11 -14 16 -14
10z"/>
<path d="M2817 1559 c4 -13 8 -18 11 -10 2 7 -1 18 -6 23 -8 8 -9 4 -5 -13z"/>
<path d="M2690 1179 c0 -5 5 -7 10 -4 6 3 10 8 10 11 0 2 -4 4 -10 4 -5 0 -10
-5 -10 -11z"/>
<path d="M2495 3160 c3 -5 8 -10 11 -10 2 0 4 5 4 10 0 6 -5 10 -11 10 -5 0
-7 -4 -4 -10z"/>
<path d="M1503 3106 c8 -25 34 -28 67 -7 l35 22 -52 -3 c-29 -2 -52 -7 -50
-12z"/>
<path d="M1557 3053 c-4 -3 -7 -18 -7 -33 0 -14 -6 -32 -12 -38 -8 -8 -13 -43
-13 -93 0 -66 3 -82 17 -90 16 -9 38 -65 44 -114 2 -11 6 -44 10 -73 10 -79
17 -54 14 45 -2 49 -4 100 -4 115 -1 14 -4 24 -8 21 -5 -2 -8 5 -8 17 0 11 7
23 15 26 12 5 12 11 2 37 -7 18 -13 64 -12 102 0 73 -14 102 -38 78z"/>
<path d="M1927 2604 c-3 -6 0 -31 7 -55 12 -39 14 -41 14 -14 0 42 -12 82 -21
69z"/>
<path d="M1529 2411 c5 -9 11 -52 15 -96 4 -44 12 -85 17 -92 6 -6 11 -29 12
-50 1 -21 9 -46 18 -56 15 -16 17 -16 39 8 17 18 27 22 40 15 10 -5 21 -6 24
-2 4 4 16 -4 28 -18 l20 -25 -6 25 c-3 14 -6 29 -6 33 0 5 -14 6 -31 2 -38 -9
-48 4 -42 54 2 20 -2 54 -11 76 -12 32 -15 35 -15 16 -2 -44 -21 -8 -25 45 -5
69 -11 79 -51 80 -28 0 -32 -2 -26 -15z m48 -33 c-3 -7 -5 -2 -5 12 0 14 2 19
5 13 2 -7 2 -19 0 -25z"/>
<path d="M1491 2250 c0 -8 6 -28 14 -45 13 -30 13 -30 14 -4 1 14 -6 34 -14
45 -11 14 -14 15 -14 4z"/>
<path d="M1510 2155 c-12 -15 -11 -16 16 -13 16 1 28 8 27 13 -3 17 -29 17
-43 0z"/>
<path d="M1472 2093 c2 -8 6 -14 11 -14 4 1 18 1 32 1 38 0 30 17 -10 22 -26
3 -35 0 -33 -9z"/>
<path d="M1645 2090 c-3 -5 -2 -10 4 -10 5 0 13 5 16 10 3 6 2 10 -4 10 -5 0
-13 -4 -16 -10z"/>
<path d="M1710 2086 c0 -2 6 -9 14 -15 10 -9 15 -8 20 4 4 10 -1 15 -14 15
-11 0 -20 -2 -20 -4z"/>
<path d="M1491 2044 c0 -11 3 -14 6 -6 3 7 2 16 -1 19 -3 4 -6 -2 -5 -13z"/>
<path d="M2020 1911 c0 -5 7 -12 16 -15 27 -10 36 -7 20 9 -16 17 -36 20 -36
6z"/>
<path d="M1721 1888 c-13 -34 -6 -38 59 -38 65 0 85 14 46 32 -14 6 -26 15
-26 20 0 4 -16 8 -35 8 -28 0 -38 -5 -44 -22z"/>
<path d="M2020 1846 c0 -9 5 -16 10 -16 6 0 10 4 10 9 0 6 -4 13 -10 16 -5 3
-10 -1 -10 -9z"/>
<path d="M1680 1818 c0 -5 23 -8 50 -8 28 0 50 4 50 9 0 5 -22 8 -50 8 -27 -1
-50 -5 -50 -9z"/>
<path d="M1835 1820 c-3 -5 -2 -10 4 -10 5 0 13 5 16 10 3 6 2 10 -4 10 -5 0
-13 -4 -16 -10z"/>
<path d="M2138 1823 c7 -3 16 -2 19 1 4 3 -2 6 -13 5 -11 0 -14 -3 -6 -6z"/>
<path d="M1870 1799 c0 -5 9 -9 20 -9 11 0 20 2 20 4 0 2 -9 6 -20 9 -11 3
-20 1 -20 -4z"/>
<path d="M1852 1771 c-36 -10 -26 -26 14 -22 19 1 42 -3 50 -9 11 -10 14 -9
14 3 0 8 -8 17 -17 21 -10 3 -22 8 -28 10 -5 2 -20 1 -33 -3z"/>
<path d="M2173 1773 c-18 -7 -16 -43 2 -43 9 0 15 9 15 25 0 14 -1 25 -2 24
-2 0 -9 -3 -15 -6z"/>
<path d="M2315 1770 c-3 -6 1 -17 9 -26 15 -14 16 -13 16 10 0 26 -13 35 -25
16z"/>
<path d="M1965 1745 c17 -14 35 -25 41 -25 6 0 23 -9 37 -20 31 -25 34 -80 5
-80 -10 0 -18 -4 -18 -10 0 -5 7 -10 15 -10 8 0 15 -4 15 -8 0 -12 72 -1 96
15 30 19 32 93 4 111 -17 10 -20 10 -20 -3 0 -10 -10 -15 -30 -15 -16 0 -30 5
-30 10 0 6 -6 10 -13 10 -7 0 -29 11 -49 25 -20 14 -47 25 -60 25 -22 -1 -22
-2 7 -25z"/>
<path d="M1978 1693 c7 -3 16 -2 19 1 4 3 -2 6 -13 5 -11 0 -14 -3 -6 -6z"/>
<path d="M2008 1583 c7 -3 16 -2 19 1 4 3 -2 6 -13 5 -11 0 -14 -3 -6 -6z"/>
<path d="M2436 1532 c-2 -4 2 -15 9 -25 15 -20 31 -6 21 18 -6 16 -22 20 -30
7z"/>
<path d="M1620 1490 c-13 -8 -13 -10 2 -10 9 0 20 5 23 10 8 13 -5 13 -25 0z"/>
<path d="M1720 1382 c0 -12 23 -32 37 -32 18 0 16 27 -3 34 -21 8 -34 8 -34
-2z"/>
<path d="M4605 1347 c-4 -10 -5 -40 -1 -67 4 -28 3 -50 -2 -50 -12 0 -72 -131
-72 -156 0 -25 -27 -48 -74 -64 -37 -12 -78 -56 -91 -99 -7 -23 -5 -24 25 -18
17 4 44 16 60 27 26 19 50 26 50 15 0 -2 -13 -29 -30 -60 -18 -34 -25 -55 -17
-55 34 1 58 16 82 52 15 22 29 37 32 34 3 -2 7 -29 9 -58 3 -29 9 -55 15 -57
5 -1 2 -9 -8 -17 -10 -7 -13 -14 -6 -14 7 0 24 10 38 23 l27 23 -16 54 c-16
52 -14 73 3 54 5 -5 30 -34 57 -64 26 -30 45 -47 41 -37 -4 11 -2 17 8 17 8 0
15 2 15 5 0 13 -29 55 -77 112 -47 54 -63 83 -48 83 4 0 122 -87 135 -100 3
-3 16 -14 30 -25 21 -17 20 -15 -5 16 -17 20 -49 49 -72 64 -83 54 -85 58 -84
198 0 130 -10 198 -24 164z"/>
<path d="M1257 1214 c-34 -42 -29 -44 13 -5 18 16 28 31 23 34 -5 3 -21 -10
-36 -29z"/>
<path d="M515 1024 c-21 -18 -35 -37 -31 -41 4 -5 16 2 26 15 25 31 34 28 13
-5 -17 -26 -17 -27 0 -20 10 4 21 7 23 7 2 0 4 9 4 20 0 11 5 20 10 20 12 0
13 27 2 34 -5 3 -26 -11 -47 -30z"/>
<path d="M565 979 c5 -14 3 -17 -9 -13 -9 3 -16 1 -16 -5 0 -5 14 -9 30 -8 19
1 28 7 26 14 -3 7 1 10 8 7 8 -3 17 -1 21 5 3 6 3 11 -2 12 -4 0 -21 2 -36 4
-24 3 -27 1 -22 -16z"/>
<path d="M460 964 c-10 -11 -9 -14 8 -14 25 0 37 16 18 23 -8 3 -20 -1 -26 -9z"/>
<path d="M560 930 c-9 -6 -10 -10 -3 -10 6 0 15 5 18 10 8 12 4 12 -15 0z"/>
<path d="M519 893 c-13 -16 -12 -17 4 -4 9 7 17 15 17 17 0 8 -8 3 -21 -13z"/>
<path d="M687 837 l-28 -23 29 -29 c20 -20 41 -29 70 -32 25 -2 42 0 42 6 0 6
7 11 15 11 27 0 0 44 -41 67 -48 28 -52 28 -87 0z m13 -27 c0 -5 -5 -10 -11
-10 -5 0 -7 5 -4 10 3 6 8 10 11 10 2 0 4 -4 4 -10z m58 -9 c3 -8 -1 -12 -9
-9 -7 2 -15 10 -17 17 -3 8 1 12 9 9 7 -2 15 -10 17 -17z"/>
<path d="M910 740 c8 -5 20 -10 25 -10 6 0 3 5 -5 10 -8 5 -19 10 -25 10 -5 0
-3 -5 5 -10z"/>
<path d="M297 502 c18 -11 53 -93 53 -125 l0 -28 -43 35 c-24 19 -49 46 -56
60 -13 23 -57 43 -68 32 -10 -10 28 -76 52 -92 13 -8 31 -27 40 -41 17 -25 17
-26 -6 -20 -13 3 -45 9 -72 12 -41 6 -46 5 -41 -8 5 -14 -3 -16 -51 -16 -31 1
-59 -2 -62 -5 -4 -3 6 -23 21 -43 l27 -38 -27 -21 c-31 -25 -28 -32 21 -59 34
-18 38 -18 46 -2 15 26 37 21 73 -18 l32 -36 31 30 c36 34 93 66 93 52 0 -12
-53 -51 -69 -51 -14 0 -14 -17 -1 -25 6 -4 2 -15 -10 -27 -27 -30 -25 -37 15
-54 46 -19 75 -18 75 2 0 13 3 14 13 5 22 -18 59 19 45 44 -6 10 -12 37 -13
59 l-1 41 93 -3 c52 -2 111 -1 131 3 l37 7 -37 19 c-43 22 -45 27 -21 44 15
11 13 14 -22 24 -22 6 -68 11 -101 11 -62 0 -94 16 -79 40 3 5 -5 31 -19 58
-13 26 -27 57 -31 68 -7 28 -50 74 -67 74 -10 0 -10 -2 -1 -8z"/>
<path d="M1075 430 c-3 -5 -1 -10 4 -10 6 0 11 5 11 10 0 6 -2 10 -4 10 -3 0
-8 -4 -11 -10z"/>
<path d="M1050 399 c0 -5 5 -7 10 -4 6 3 10 8 10 11 0 2 -4 4 -10 4 -5 0 -10
-5 -10 -11z"/>
<path d="M4350 279 c0 -11 4 -18 10 -14 5 3 7 12 3 20 -7 21 -13 19 -13 -6z"/>
<path d="M4439 266 c-16 -15 -35 -23 -51 -21 -25 3 -26 1 -30 -59 -5 -63 7
-113 37 -160 l17 -26 277 1 c190 1 266 4 244 10 -18 5 -33 14 -33 20 0 6 8 8
18 5 16 -6 16 -5 0 8 -10 7 -18 18 -18 25 0 6 -4 11 -10 11 -5 0 -7 -7 -4 -15
4 -9 0 -15 -10 -15 -9 0 -16 4 -16 9 0 5 -10 7 -22 4 -20 -4 -19 -2 5 12 29
17 36 35 12 35 -8 0 -15 4 -15 9 0 5 -13 11 -29 14 -29 6 -64 47 -41 47 6 0 8
5 5 11 -4 6 -19 7 -36 4 -21 -5 -31 -2 -35 9 -4 10 -18 16 -36 16 -16 0 -41 9
-55 20 -17 13 -33 17 -53 14 -22 -5 -31 -1 -39 15 -15 28 -50 27 -82 -3z m114
-93 c-7 -2 -19 -2 -25 0 -7 3 -2 5 12 5 14 0 19 -2 13 -5z m150 -19 c23 -8 22
-21 -3 -29 -23 -7 -26 -21 -7 -28 7 -4 6 -6 -4 -6 -9 -1 -19 6 -23 14 -3 9
-16 19 -28 24 l-23 8 23 7 c12 4 22 12 22 18 0 5 6 7 13 4 6 -3 20 -9 30 -12z"/>
<path d="M4550 276 c0 -9 5 -16 10 -16 6 0 10 4 10 9 0 6 -4 13 -10 16 -5 3
-10 -1 -10 -9z"/>
<path d="M1188 238 c-35 -9 -105 -72 -90 -81 15 -10 94 0 101 12 5 7 11 12 15
12 17 -3 18 1 0 20 -19 22 -19 22 1 11 17 -9 20 -7 20 14 0 13 -2 24 -5 23 -3
-1 -21 -5 -42 -11z m-53 -58 c3 -5 1 -10 -4 -10 -6 0 -11 5 -11 10 0 6 2 10 4
10 3 0 8 -4 11 -10z"/>
<path d="M2640 170 c0 -5 5 -10 11 -10 5 0 7 5 4 10 -3 6 -8 10 -11 10 -2 0
-4 -4 -4 -10z"/>
</g>
</svg>
