<svg xmlns="http://www.w3.org/2000/svg" viewBox="0 0 566.9 566.9">
  <path fill="#fff" d="M441.9 416.8c-5.1 0-10.2-.4-15.2.1-3.4.3-6.6.4-10 .1-3.9-.3-7.8-.3-11.7-.2-3.3.1-6.7.6-10 .7-3.5.2-7 1.2-10.5-.3-1-.4-2.2-.5-3.3-.2-4.5 1.1-9.1 1.1-13.7 1.1H351c-2.1 0-4.2-.1-6.3-.1-.4 0-.8-.1-1.1 0-3.2.8-6.5.7-9.7.6-1.7-.1-3.4-.2-5.2-.3-1.4-.1-2.7-.2-4.1-.2-2.6 0-5.3.1-7.9.1h-.3c-5.5 1.2-11.1-.2-16.7.1-5.6.3-11.2.3-16.8.3-5.6 0-11.3-.1-16.9-.1-4.1 0-8.3.2-12.4.3-2 0-4-.1-6-.1-2.8 0-5.6.1-8.3.1-.9 0-1.9.1-2.8.1-4 0-8-.1-12-.1-4.6 0-9.2.1-13.8.2-1.8 0-3.6.1-5.4.1h-65.5c-3.8 0-7.6-.2-11.4-.3-3.7 0-7.4 0-11.1.1-1.8 0-3.6.5-5.4.5-3.2 0-4.9-1.9-5.1-5-.1-1.9-.5-3.9-.6-5.8-.2-3.4-.2-6.7-.2-10.1 0-1.9.1-3.8.1-5.7 0-3-.5-6-.1-8.8.5-3 .4-5.9.1-8.9-.4-4.2-.2-8.5-.2-12.8 0-5.8.1-11.7.2-17.5v-.3c-.1-6.8-.3-13.7-.4-20.5 0-.7.1-1.4.1-2.1-.1-3.2-.3-6.4-.4-9.6 0-.7-.2-1.5-.1-2.2.1-5.1.1-10.1.2-15.2 0-1.3.2-2.5.2-3.8 0-2-.1-4.1-.2-6.1 0-1-.2-2-.1-3 0-3.9.1-7.8.2-11.7v-14.2c0-.7.2-1.4 0-2-1.5-4.3-.8-8.9-1.3-13.3-.1-1.3 0-2.7 0-4.1 0-.6.2-1.3 0-1.9-1.4-4.3-.9-8.6.2-12.9.6-2.5.5-4.8-.4-7.3-.9-2.6-1-5.4-.2-8.1.9-3.1 1.1-6 .1-9.1-1-2.9-.7-5.9.2-8.9.3-.9 0-2-.2-3s-.7-2.1-.6-3.1c.4-5.9.8-11.8 1.3-17.7.3-4.1.6-8.3.7-12.4 0-1.7-.7-3.4-.7-5.2-.1-4.4 0-8.8 0-13.3 0-4.4-.3-8.9-.3-13.3-.1-5.2 0-10.3 0-15.5 0-3.6-.1-7.2-.1-10.7 0-6.4 0-12.9-.1-19.3 0-1.5 0-3.1-.1-4.6-.2-3.1 2.8-6.5 5.9-6.5 8.2 0 16.5.2 24.7.2 5.8 0 11.6-.4 17.4-.6.6 0 1.2-.1 1.7 0 5.2 1.1 10.4.2 15.6.2 1.7 0 3.5-.7 5.2-.8 1.5-.1 3 0 4.5.1 1.4.1 2.8.6 4.2.6 3.9.1 7.8.4 11.6-.7 1.3-.4 2.7-.3 4.1-.3 4.4.1 8.8.2 13.1.3 1 0 2.1.2 3.1.4 1.8.4 3.4.4 5.1-.4.5-.3 1.2-.4 1.8-.4 7.3-.1 14.5-.2 21.8-.2 10.2 0 20.5.1 30.7.1h.8c7.9-1 15.9.2 23.8-.1 7.8-.3 15.6-.3 23.4-.4 3.3 0 6.5.2 9.8.2H361c5.5-1.4 10.9-.2 16.4.3 1.2.1 2.5-.7 3.8-.8 2.5-.2 4.9-.1 7.4-.1 2.2 0 4.4-.1 6.6 0 1.5.1 3 .3 4.5.5 1.1.1 2.2.3 3.3.3 2.8-.1 5.7-.2 8.5-.4 2.3-.1 4.5-.3 6.8-.5.7 0 1.4-.1 2.1-.1 5.8.2 11.6.4 17.4.5 5.3.1 10.5-.1 15.8-.1 2.7 0 5.2 2.3 6.1 4.8 1 2.6.3 5.2.5 7.8.1 1.5.3 3 .3 4.6 0 .9 0 2-.4 2.8-1 2.1-.9 4.1-.3 6.3.4 1.3.4 2.8.5 4.2.1 1.7.1 3.4.1 5.1v9.8c0 .5.1 1.1.1 1.6 0 13.6 0 27.2.1 40.9.1 9 .4 18 .6 27.1 0 .6.1 1.2.2 1.7.5 2.2.4 4.3-.5 6.4-.5 1.1-.3 2.1.5 3 1.2 1.2 1.5 2.8 1.2 4.4 0 .1-.1.2-.1.3 1.1 4-1.2 8.1.1 12.1.1.4.1.9.1 1.4v16.3c0 .6 0 1.2.1 1.7.6 2.7 0 5.2-1.2 7.7-.4.9-.8 2.3-.4 3.1 1.7 3.1 1.3 6.3.8 9.6-.2 1.4.1 2.8.1 4.2 0 .8.2 1.8-.1 2.5-1.4 3.6-1 7.4-1 11.1v12.1c0 3.8-.1 7.6-.1 11.4v22.4c0 4.5.1 9.1.1 13.6v68.1c0 4.8.2 9.6.3 14.4 0 2.6-.1 5.2-.3 7.7-.3 3.2-2.4 4.8-5.8 4.9h-13.3zm-235.5-304c.2-.1.4-.3.6-.4-.3-.8-.5-1.6-.9-2.4-.9-1.8-.5-2.9 1.1-3.9 1.1-.6 2.1-1.4 3.2-2 5.3-3 10.7-5.9 16-9 2.6-1.5 4.7-2.6 7 .4.6.8 1.4.4 1.5-.7v-1.3c0-2.1.6-3 2.6-3.5 7.5-2 15-4.1 22.6-6.1 1.8-.5 3.3.2 4.1 1.8.3.7.5 1.4.9 2 .2.3.7.7.9.7.4-.1.9-.4 1-.8.2-.7.2-1.4.3-2.2.1-1.5.8-2.6 2.4-2.6 3.3-.2 6.5-.2 9.8-.3 1.8 0 3.6.1 5.4.1 3.2.1 6.4.2 9.6.4 1.7.1 2.8 1.1 3.2 2.8.2.7.6 1.4.9 2 .5-.6 1-1.1 1.5-1.7l.1-.1c1.4-2.6 2.4-3 5.3-2 3.2 1 6.3 2 9.5 2.9.8.2 1.6.3 2.3.4.9.2 1.8.3 2.6.6 1.9.6 3.8 1.3 5.7 1.9 3 .9 3.8 1.7 3.9 5 0 1.1.6 1.4 1.6.8.4-.2.7-.5.9-.8 1.6-1.7 2.5-1.9 4.4-.7 6.7 4.1 13.4 8.1 20.1 12.3.8.5 1.4 1.4 1.8 2.3.5 1 1 1.5 2 1.2 1.7-.5 2.9.1 4.1 1.3 5.3 5.5 10.7 10.9 16 16.5 2.2 2.2 2.1 2.7.4 5.3-.3.4-.3.9-.4 1.4.5 0 1.1.2 1.5 0 3.1-1.4 4.1-.6 5.6 2.1 3.9 6.8 7.6 13.6 11.5 20.4.8 1.4.5 2.6-.6 3.7-.3.3-.8.6-1.1.9-.2.2-.3.7-.2.8.2.2.6.4.9.4.3 0 .7-.1 1.1-.2 1.4-.6 2.3.1 2.8 1.2.6 1.3 1.2 2.6 1.6 4 1.6 6.5 3.1 13.1 4.8 19.6.6 2.2.2 3.9-1.8 5.2-.9.6-.7 1.2.3 1.6.4.1.8.2 1.2.2 1.8.1 2.8 1.1 2.9 2.7.2 3.4.3 6.7.4 10.1 0 1.4-.1 2.7-.2 4.1-.1 3.6-.2 7.1-.4 10.7-.1 1.6-1.1 2.6-2.6 3-.5.1-.9.2-1.4.4-1 .4-.9.9-.2 1.5.3.3.7.5 1.1.7 2.6 1.3 3.2 2.1 2.3 5-2.3 7.2-3.5 14.7-6.3 21.7-.9 2.1-1.8 2.8-4 2.9-.5 0-1 .3-1.4.4.2.4.4 1 .7 1.3 2.4 2.3 2.4 3.1.7 5.9-1.8 2.9-3.5 5.9-5.2 8.8-2.2 3.7-4.4 7.3-6.7 10.9-.4.6-1.1 1.2-1.7 1.3-1.7.2-1.9 1.2-1.6 2.6.3 1.4-.1 2.4-1.1 3.4-3.4 3.3-6.7 6.6-10 9.9-2.6 2.5-5.1 5-7.7 7.5-1 .9-2.1 1-3.3.2-.7-.5-1.6-.8-2.4-1.2.2.9.3 1.9.6 2.8.5 1.5.3 2.5-1 3.3-2.5 1.5-5 3-7.5 4.4-4.3 2.5-8.6 4.9-12.9 7.4-2.7 1.6-3.5 1.5-5.7-.6-.4-.4-1-.5-1.4-.8-.1.5-.3 1.1-.2 1.6.2 2.3-.2 3.5-1.9 4-2.8.9-5.5 1.7-8.3 2.5-4.7 1.2-9.4 2.3-14.1 3.5-2.4.7-5 .2-5.8-2.9-.2-.7-.8-1.2-1.2-1.8-.3.7-.6 1.5-.9 2.2v.3c.1 1.4-.4 2.6-1.5 3.7-.5.6-.9 1.6-.8 2.4.3 2.3.7 4.7 1.5 6.9 1.5 4.6 5.5 7.2 10.3 7.3 3.1.1 6.2.4 9.3.7 1.5.1 2.1-.4 1.6-1.8-.6-1.9-1.3-3.7-2-5.5-.1-.3-.4-.5-.6-.7-1.3-1.5-3-1.7-4.8-1.4-1 .2-2.1 0-2.3-1.2-.1-.8.2-1.9.8-2.5.6-.7 1.7-1 2.7-1.2 2.7-.7 5.4-1.3 8.2-2 1.6-.4 3.2-1 4.8-1.4 1.5-.4 2.9.1 3.4 1.3.5 1.4 0 2.5-1.2 3.2l-1.5.9c-2 1.3-2.3 2.1-1.7 4.5 1.1 4.2 2.2 8.3 3.3 12.5 1.2 4.5 2.4 9 3.5 13.5.4 1.5.6 3.1 1.1 4.6 1 2.7 3 3.3 5.3 1.7.6-.4 1.2-.6 1.9-.9 2.9-1 4.4-3.2 5.4-6 1-2.6.6-5.2.5-7.8 0-1.1.2-2.2 1.3-2.4.9-.2 2 .1 2.8.5.9.6 1.6 1.7 2.4 2.5 2.5 2.5 7.1 5.2 11.3 3.5 1.6-.7 3.2-1.7 4.6-2.7.9-.6 1.1-1.7.5-2.7-1.5-2.7-3-5.4-4.6-8.1-2.3-4-4.7-8-7-12-1.6-2.7-3-5.4-4.6-8.1-1.3-2.1-2.8-2.6-5.1-1.9-.7.2-1.4.5-2.1.6-1.4.2-2.4-.5-2.1-1.9.2-.8.7-1.8 1.4-2.3 1.9-1.2 4-2.2 5.9-3.3 2.4-1.4 4.7-2.9 7.2-4.3.7-.4 1.7-.7 2.5-.7 1.7.1 2.4 1.4 1.5 2.9-.8 1.2-1.8 2.3-2.8 3.4-.8.9-1 1.9-.5 2.9 1.8 3.2 3.7 6.4 5.5 9.6 1.7 3 3.6 6 5.3 9 1.9 3.4 3.8 6.9 5.7 10.4.9 1.6 2.2 2 3.9 1.2.9-.5 1.8-1.1 2.6-1.8 2.9-2.4 4.9-5.3 4.4-9.3-.2-1.6-.8-3.2-1.2-4.8-.2-.6-.5-1.2-.6-1.8-.3-1.9.8-3 2.7-3 1.9 0 3.2 1.2 4.6 2.3.8.6 1.7 1.2 2.6 1.4 4.8 1.1 8.7-.5 11.9-4.1 1.1-1.3 1.1-2.5-.1-3.8-1.3-1.4-2.8-2.6-4.1-4-6.2-6.2-12.4-12.5-18.6-18.7-2-2-3-2-5.3-.2-1.5 1.2-3.5 1.3-4.3.2-.9-1.1-.5-2.7 1-4.1.1-.1.2-.1.2-.2 2.8-2.6 5.5-5.2 8.2-7.8.8-.8 1.5-1.8 2.4-2.5 1-.9 2.7-.9 3.5-.1.8.8.8 2.1-.2 3.3-.2.3-.4.5-.6.7-1.6 2-1.7 3.2 0 5 1.9 2.1 3.9 4 5.8 6 3.9 3.9 7.8 7.8 11.7 11.8 1.7 1.7 3.3 3.6 5 5.3 1.3 1.4 2.7 1.7 3.8.8 4-3.5 6.9-8.1 4.2-13.6-.8-1.7-2.2-3.1-3-4.8-.5-.9-.7-2.3-.4-3.2.5-1.2 1.8-.5 2.8-.2.5.1.9.3 1.3.5 2.4.9 4.8 1 7.3.3 2.9-.8 4.9-2.6 6.8-4.7 2.3-2.6 1.4-3.9-.9-5.8-.5-.4-1.1-.5-1.7-.8-1.2-.6-2.3-1.2-3.4-1.9-3.4-2.1-6.7-4.5-10.3-6.3-3.7-1.8-7.2-3.7-10.6-6.1-2.1-1.5-3.7-1.3-5.6.4-.8.7-1.7 1.5-2.7 1.9-.7.3-1.9.3-2.4-.1s-.7-1.5-.7-2.2c0-.6.6-1.2.9-1.8 1.4-2.3 2.9-4.6 4.3-7 1.2-2 2.2-4.1 3.4-6.1.7-1.1 1.8-1.6 3-1 1.2.6 1.5 1.7 1.1 3l-.3.9c-1 2.7-.4 4.3 2.1 5.7 4.4 2.5 8.7 5 13.1 7.6l14.4 8.4c1.2.7 2.4.4 3.1-.8.5-.8.8-1.6 1.3-2.3 2.9-4.6 1.6-9.7-1.8-13.1-1-1-2.3-1.9-3.3-3-.5-.6-.9-1.7-.7-2.3.2-.6 1.3-1 2.1-1.2.5-.2 1.2-.1 1.7 0 3.1.5 5.8-.4 8.5-1.8 3.6-2 4.8-5.1 4.5-8.7-.1-.9-1-2.1-1.8-2.5-2.3-1-4.8-1.7-7.3-2.5-2.4-.7-4.8-1.4-7.3-2.1-1.9-.5-3.8-.8-5.7-1.3-1.6-.4-3.1-.8-4.7-1.2-1.9-.5-3.7-1.3-5.6-1.6-.9-.2-2.2.1-2.9.7-1 .8-1.6 2-2.3 3.1-.6.9-1.1 1.7-2.3 1.4-1.2-.3-1.9-1.1-1.8-2.4 0-.7.1-1.5.4-2.2 1.4-4.1 3.2-8.2 3.4-12.6 0-.4.2-.8.4-1.2.7-1.4 2-1.9 3.4-1.4s1.8 1.7 1.4 2.9c-.5 1.9.2 3.2 1.7 4 1.2.7 2.6 1.4 4 1.7 4.8 1.2 9.7 2.3 14.6 3.4.4.1.8.3 1.2.4 2.5.8 5.1 1.8 7.6 2.5 2.3.6 3.5-.2 3.6-2.5.1-2.6-.2-5.3 0-7.9.2-2.5-.5-4.3-2.8-5.4-.7-.3-1.3-.8-2-1.3-1.7-1.3-1.5-2.9.5-3.7.4-.2.8-.3 1.2-.4 2.1-.7 2.7-1.4 2.8-3.7.1-3 .2-6 .2-9 0-2.1-.7-3-2.9-3.1-3.6-.2-7.3-.3-10.9-.3-4 0-8 0-12 .1-.9 0-1.8.3-2.6.6-1.8.8-2.1 2.7-2.5 4.3-.3 1.1-.8 2-2.2 1.9-1.3-.1-1.9-.9-2-2.1-.1-1.2 0-2.4 0-3.6 0-3.4 0-6.7.1-10.1 0-1.2-.1-2.4.2-3.4.5-1.9 2.6-2.3 3.8-.7.5.6.8 1.5 1 2.3 1 2.9 2.4 3.9 5.4 3.7 1.4-.1 2.7-.1 4.1-.1 5.9 0 11.8 0 17.7-.1 1.2 0 2-.6 2.2-1.9.2-1.4.2-2.8.2-4.3s-.1-3.1 0-4.6c.3-3.5 0-4-3.5-4.8-.2 0-.4-.1-.6-.1-1.9-.6-2.6-2.4-1.4-4 .7-.9 1.8-1.7 2.9-2.2 1.8-.8 2.7-2.1 2.7-3.9 0-3.1-.1-6.1-.2-9.2-.1-2.3-1.1-2.8-3.3-2.1-4 1.2-8 2.4-12.1 3.6-.4.1-.8.1-1.2.2-1.3.3-2.7.5-4 .8-3.3.8-6.5 1.7-9.8 2.4-2.4.5-3.7 2.1-3.8 4.6 0 .7.2 1.4 0 2-.2.8-.7 2-1.2 2-.8.1-2.2-.3-2.5-.9-.9-1.7-1.8-3.5-2-5.4-.3-2.8-1-5.4-2.1-7.9-.5-1.1-.8-2.3-.9-3.5 0-.8.5-1.9 1.1-2.2.6-.3 1.9-.2 2.4.3 1 .8 1.7 1.9 2.5 3 1.1 1.6 2.2 2 4 1.4 1-.4 2.1-.9 3.1-1.2 5.7-1.5 11.3-2.9 17-4.4 2.8-.7 5.5-1.7 8.4-2.2 3.3-.6 5.1-4.1 3.3-7-.4-.7-1-1.2-1.5-1.9-2.7-4-6.3-5.9-11.2-5-.9.2-2 .1-2.9-.2-1.5-.5-1.7-1.4-.9-2.7.5-.7 1.1-1.4 1.7-2.1 1.3-1.5 2.9-2.8 3.9-4.5 2.3-3.8 1.1-7.7-.6-11.2-1.3-2.8-3.7-2.9-5.6-.9-.3.3-.6.6-1 .8-3.1 1.7-6.2 3.4-9.2 5.2-3.5 2.1-7 4.2-10.6 6.3-.4.2-.9.4-1.3.6-1.5.7-3 1.4-4.3 2.2-2.5 1.7-2.7 2.9-1.5 5.6.2.4.4.8.4 1.2-.1.8 0 2-.5 2.3-.7.4-1.8.3-2.7.1-.5-.1-1.1-.7-1.4-1.2-.7-1.1-1.3-2.3-2-3.4-1.6-2.8-3.2-5.5-4.8-8.3-.5-.9-1.1-2-1.2-3 0-.7.6-1.8 1.3-2.1.6-.3 1.6.1 2.4.4.3.1.5.5.7.8 2.3 2.5 3.8 2.6 6.6.8 2.4-1.6 4.8-3 7.3-4.4 2.2-1.3 4.6-2.4 6.8-3.7 3.5-2 6.9-4 10.3-6.1.7-.4 1.4-.8 2-1.2 2.5-1.9 2.5-2.2.6-4.8-.2-.2-.3-.5-.4-.7-2.9-4.4-8.6-7.6-14.1-4.4-1.1.6-2.5.6-3.8.6-1.3 0-1.9-1-1.6-2.2.3-1 .8-2.1 1.4-2.9 3.8-5.2 3.5-11.5-1-16-2-2-3.6-1.9-5.4.3-1.4 1.7-2.9 3.2-4.4 4.8-3.3 3.2-6.7 6.4-10 9.6-2.6 2.6-5.1 5.3-7.7 7.9-1.4 1.4-1.5 3.1-.2 4.8.5.7 1.2 1.4 1.4 2.2.2.7.1 2-.3 2.4-.5.4-1.7.4-2.4.1-1-.4-1.8-1.3-2.6-2-2.8-2.8-5.6-5.7-8.4-8.5-.7-.7-1.3-1.4-1.7-2.3-.5-.9-.9-2 .1-2.9 1-.9 2.1-.8 3.2 0 .7.4 1.2 1 1.9 1.5 1 .8 2.1 1 3.1 0 1.4-1.2 2.8-2.2 4.1-3.5 3.6-3.6 7.1-7.3 10.8-10.9 3-2.9 6-5.8 9.1-8.6 1.6-1.5 1.8-3 .2-4.6-.8-.8-1.7-1.5-2.7-2.2-3.9-3.1-9.2-2.4-13.2.5-1 .7-2 1.6-3.2 2-.7.3-2 .1-2.4-.4-.4-.5-.2-1.7.1-2.4.4-1.1 1.3-2.1 1.6-3.2.8-2.5-.4-4.1-3-4.1-3.4 0-6.9 0-10.3.2-1.1.1-2.5.7-3.1 1.5-1.5 2.1-2.7 4.4-4 6.6-2.2 3.8-4.3 7.6-6.6 11.3-1.2 1.9-1.1 3.4.7 4.9.7.6 1.5 1 2 1.8.4.6.9 1.6.6 2.3-.2.6-1.2 1.4-1.8 1.3-1.2-.1-2.6-.5-3.7-1.1-2.6-1.4-5-3-7.5-4.6-1.8-1.1-3.6-2.3-5.2-3.6-1.3-1.1-.8-2.8.8-3.1 1-.2 2.2-.3 3.1 0 2.4 1 4.3-.5 5.7-2.6 2.3-3.6 4.4-7.3 6.5-11 .4-.7.7-1.9.4-2.6-.2-.5-1.5-.9-2.3-.9-9.8 0-19.6 0-29.5.1-1.5 0-2.6.5-3.1 1.9-.6 1.9-1.7 3.8-.1 5.7.3.4.9.6 1.3.8.5.2 1 .2 1.5.4 1.3.4 2.1 1.7 1.9 3.1-.2 1.3-1.3 2.1-2.8 1.9-.7-.1-1.4-.3-2.1-.5-3.7-1.1-7.5-2.1-11.2-3.2-.8-.2-1.7-.3-2.4-.7-1.1-.6-2.1-1.4-1.7-2.9.4-1.3 1.4-1.7 2.7-1.7 1 0 2 .1 3-.1 1.3-.3 2.4-1.8 2.3-2.9-.2-1.4-1.4-1.5-2.5-1.7-.4-.1-.7-.1-1.1-.1-7 0-14 0-21.1.2-1 0-2.7.6-2.8 1.1-.2 1.6 1.5 1.3 2.5 1.8.7.4 1.8 1.2 1.8 1.6-.1.8-.9 1.9-1.6 2.1-1.3.4-2.7.2-4 .2h-9.9c-1.1 0-2.4 0-3.4-.3-1.7-.6-1.9-2.1-.5-3.3.6-.5 1.3-.7 1.9-1.1.4-.3.7-.6 1.1-1-.4-.3-.8-.6-1.3-.7-.7-.2-1.4-.2-2-.2-6-.1-11.9-.2-17.9-.2-1.4 0-2.9 0-4.3.2-2.2.3-2.8 1.7-1.4 3.4 1.3 1.6 3 1.6 4.8 1.3 1.2-.2 2.2 0 2.6 1.2.4 1.2 0 2.2-1.1 2.9-.7.4-1.5.6-2.2.8-4.3 1.1-8.6 2.3-12.8 3.4-.5.1-1.1.4-1.5.2-.8-.3-1.8-.7-2.1-1.3-.3-.7-.1-1.9.4-2.5.6-.8 1.7-1.2 2.6-1.8 2.1-1.2 2.1-5.9 0-7.1-.3-.2-.8-.3-1.2-.3-2.7-.1-5.5-.1-8.2-.1-2.7 0-5.4.3-8.1.3-3.9 0-7.8-.3-11.7-.4-.9 0-1.9-.1-2.8 0-2.1.3-2.7 1.7-1.5 3.5 2.1 3.1 4.2 6.3 6 9.6 2.8 5.1 4.4 4.5 7.8 3.1 1-.4 2-.4 2.6.6.7 1.1.5 2.2-.6 2.9-1.9 1.3-3.9 2.5-5.8 3.7-2.5 1.5-4.9 3-7.5 4.4-.9.5-1.9.9-2.9.9-1.9-.1-2.6-1.7-1.5-3.3.6-.9 1.4-1.6 2.2-2.2 1.5-1.3 1.8-2.8.7-4.5-1-1.6-2.1-3.3-3.1-5l-5.7-10.2c-1.2-2.1-2.9-3.4-5.3-3.5-3.5-.1-7-.1-10.4 0-2.2.1-3.1 1.8-2.1 3.8.5.9 1 1.7 1.4 2.7.8 1.9-.3 3.8-2.4 3.5-1.4-.2-2.8-.8-4-1.6-1.4-.9-2.7-1.9-4.5-2.2-4.4-.7-7.7 1.2-10.8 3.9-1.6 1.4-1.4 3.2.2 4.7 1 .9 2 1.8 3 2.8 6.5 6.4 13 12.9 19.5 19.3 1.8 1.8 2.9 1.8 5 .4 2.2-1.5 3.7-1.6 4.6-.4.9 1.3.4 2.8-1.5 4.5-2.4 2.2-4.7 4.4-7 6.6-1.1 1.1-2.2 2.3-3.3 3.4-.9.8-2.1 1.4-3.3.4-1.2-1-.8-2.2-.2-3.3.3-.5.6-.9.9-1.3 1.4-1.6 1.4-2.9-.1-4.5-2.2-2.4-4.5-4.7-6.8-7-3.9-3.9-7.8-7.7-11.7-11.5-1.7-1.7-3.2-3.5-4.9-5.2-1.2-1.2-2.5-1.1-3.6.1-.3.3-.7.6-1 1-2.2 2.7-4.3 5.6-3.7 9.2.4 2.6 1.6 5 3.5 7 1.3 1.4 1.8 2.9 1.1 3.8-1.1 1.3-2.3.6-3.5.1-3.6-1.5-7.3-1.6-10.6.6-1.8 1.2-3.5 2.9-5 4.5-1.1 1.3-.6 3.2.9 4.1 1.1.7 2.3 1.1 3.4 1.7.8.4 1.5.9 2.3 1.4 1.1.8 2.2 1.7 3.4 2.3 3.4 1.9 6.8 3.7 10.2 5.6.4.2.6.6 1 .8.7.5 1.4 1 2.1 1.4 1.2.8 2.6 1.4 3.8 2.3 2.4 1.7 4.1 1.8 5.9.4 1.1-.8 2.2-1.7 3.4-2.3.6-.3 1.8-.3 2.3.1.5.4.8 1.4.7 2.2-.1.7-.6 1.4-1 2.1-1.7 2.8-3.4 5.6-5.1 8.3-.9 1.4-1.6 3-2.5 4.4-.8 1.2-2 1.4-3.2.9-1.3-.5-1.3-1.7-1.1-2.8.1-.5.3-.9.5-1.4.8-2.3.5-3.5-1.7-4.8-3.4-2.1-6.9-4-10.4-6-1.2-.7-2.4-1.5-3.6-2.3-4.5-2.7-9-5.3-13.5-8.1-1.5-.9-2.7-.9-3.6.6-1 1.6-1.8 3.2-2.4 5-1 2.7-.8 5.4.9 7.7 1.4 1.9 3.3 3.5 4.9 5.3.6.8 1.4 1.9 1.2 2.8-.2 1.3-1.6 1.5-2.9 1.4-.3 0-.6 0-.9-.1-2.6-.7-4.8.1-7.2 1.1-3.7 1.5-5.5 4.2-6.4 7.8-.5 2.2.5 3.7 2.7 4.2 1.8.5 3.6 1.2 5.4 1.7 2.1.6 4.2.9 6.3 1.6 1.9.6 3.7 1.9 5.6 1.9 3.9.1 7.2 1.8 10.8 2.9 3.7 1.2 5.3.7 7-2.9.6-1.3 1.3-2.2 2.8-1.9 1.2.3 1.9 1.5 1.5 3.3-1.3 5-2.6 10-4 15-.4 1.5-1.9 2.2-3.4 1.7-1.4-.4-1.8-1.2-1.4-3 .4-1.9-.2-3.3-1.8-4.2-1-.6-2.1-1.1-3.2-1.4-4.9-1.2-9.8-2.3-14.6-3.4-1-.2-2-.6-3-.9-2.7-.8-5.4-1.7-8.2-2.5-1-.3-1.8 0-2 1-.4 1.7-.7 3.5-.8 5.2-.1 1.9.2 3.9.1 5.8 0 1.1.1 2 1 2.6 1.5 1 3.1 2 4.6 3.1.5.4 1 1.1 1 1.7 0 .5-.5 1.2-1 1.6-.6.4-1.5.6-2.2.8-1.5.3-2.1 1.3-2.2 2.7-.2 2.4-.9 4.7-.7 7.1.3 4.7.2 6.4 5.6 6.2 6.4-.2 12.9-.1 19.3 0 4.1 0 5-.6 6.2-4.6.1-.4.2-.8.4-1 .5-.5 1.2-1.2 1.8-1.2.6 0 1.5.7 1.7 1.2.4.9.5 2 .4 2.9-.5 4.3-.6 8.5-.1 12.8.3 2.3-.5 3.6-1.7 3.8-1.5.3-2.2-.4-3.1-2.9-1.1-3-2.3-3.9-5.5-3.9h-21.9c-1.8 0-2.7.7-2.6 2.2.3 3.7-.5 7.4.2 11.1.2 1.4.6 2.3 2.1 2.5.5.1 1.1.1 1.6.1 1.8.2 2.5 1.4 2.2 3.1-.3 1.7-1.6 2.4-3 2.9-1.9.7-3.3 1.8-3.2 4 0 3.2 0 6.3.1 9.5 0 1.9 1.5 2.8 3.3 2.2 4.5-1.4 8.9-2.8 13.4-4 4.8-1.3 9.7-2.4 14.6-3.5 1.8-.4 2.7-1.5 2.9-3.3.1-1.1.1-2.2.2-3.3.2-1.9 1.5-2.6 3.1-1.6.7.5 1.5 1.2 1.7 1.9.6 1.8.9 3.7 1.3 5.5.5 2.1 1.1 4.2 1.6 6.4.3 1.4.9 2.8.9 4.3 0 1.8-1.8 2.5-3.2 1.4-.8-.7-1.5-1.5-2.1-2.4-1.6-2.5-2.7-2.9-5.6-1.7-1.3.5-2.6.9-3.9 1.2-1.5.4-3.1.6-4.6 1-6.8 1.8-13.4 4.3-20.5 5.2-1.8.2-2.6 1.2-2.6 3 0 2.1.6 3.9 1.8 5.6 2.1 3 7.4 6.6 11.6 5.2.6-.2 1.3-.3 1.9-.1.8.3 2 .7 2.3 1.4.3.6-.2 1.8-.7 2.5-.7 1-1.7 1.9-2.6 2.8-4.9 4.6-4.4 9.3-1.7 14.4 1.1 2.2 3.1 2.5 5 .9.7-.6 1.4-1.1 2.2-1.5 2.7-1.5 5.5-2.9 8.2-4.4l7.2-4.2c3.3-1.9 6.6-3.8 9.8-5.8 1.8-1.2 2.1-2.7 1.2-4.7-.2-.5-.6-1-.6-1.5 0-.9 0-2.2.5-2.5.7-.4 2-.3 2.7.2.9.6 1.6 1.6 2.2 2.6 2.2 3.7 3.6 7.9 6.5 11.2 1.1 1.3.8 3.2-.3 4-1.2.8-2.7.4-3.8-1.1-.2-.3-.4-.6-.7-.9-1.2-1.4-2.9-1.7-4.4-.8-3.9 2.2-7.7 4.5-11.6 6.8-1.2.7-2.5 1.2-3.6 1.9-3.5 2-7 4.1-10.4 6.2-1 .6-2 1.2-2.9 2-1.1.9-1.5 2.1-.5 3.3 1.3 1.6 2.6 3.2 4 4.6 3 2.8 6.9 3.1 10.7 1.3 1.2-.6 2.8-.8 4.1-.7 1.7.1 2.4 1.5 1.6 3.1-.4.8-1.1 1.6-1.6 2.4-2.4 3.7-3.9 7.6-1.5 11.9.9 1.6 2.1 3 3.4 4.3 1.4 1.5 2.4 1.4 3.9-.1 3-2.9 6-5.8 8.9-8.7 4.9-4.9 9.7-9.9 14.5-14.8 1.1-1.1 1.3-2.2.3-3.5-.7-.9-1.5-1.9-1.8-2.9-.3-.8-.2-2 .2-2.6.4-.4 1.7-.4 2.4-.2.8.3 1.6 1 2.3 1.7 2.5 2.5 4.9 5 7.3 7.6 1.2 1.3 2.4 2.8 3.3 4.3.9 1.6-.4 3.1-2.2 2.6-.9-.2-1.7-.8-2.4-1.4-1.9-1.3-3-1.4-4.8.2-1.2 1-2.4 2.1-3.5 3.2-4.1 4.2-8.2 8.5-12.4 12.7-2.1 2-4.3 3.9-6.4 5.9-1.7 1.5-2.2 3-1.4 4.2 4.1 6.2 10.4 6.5 16.1 3.3.9-.5 1.6-1.4 2.5-2 1-.6 2.3-1.3 3.3-.3s.3 2.3-.3 3.4c-2.4 4.4-2.1 8.5 1.1 12.3.9 1.1 2 2 3.1 2.9 2.2 1.8 4.2 1.2 5.5-1.3 1.2-2.4 2.6-4.7 3.9-7 1.6-2.8 3.3-5.5 4.9-8.3 2.4-4.1 4.7-8.2 7.1-12.3.7-1.1.8-2.2-.1-3.2-.8-.9-1.8-1.8-2.7-2.7-.7-.7-1.5-1.5-.9-2.6.6-1.2 1.7-1.3 2.9-1.1a52598399314250370 52598399314250370 0 0 0 16.1 11.5c-.4 1.1-1.9 1.5-3.8 1.1-.1 0-.2 0-.3-.1-2.6-1.2-4.1-.6-6 2.4-2.2 3.3-4 6.8-5.9 10.3-1.3 2.4-2.6 4.8-4 7.2-1.9 3.2-3.9 6.3-5.8 9.5-.8 1.2-.5 2.4.7 3.2.9.6 1.9 1.1 2.9 1.7 4.9 2.6 10.4 1.2 13.7-3.3.7-1 1.7-2 2.7-2.5 1.7-.8 3.2.3 3.3 2.1 0 .9-.2 1.9-.1 2.8.1 3.3.1 6.5 2.6 9.2 1.4 1.6 3.3 2.1 5.2 2.9 2.8 1.3 3.7 1.1 4.7-1.8 1-2.7 1.7-5.6 2.5-8.3.6-1.9 1-3.8 2.8-5.2.5-.4.5-1.5.5-2.3.1-2.2-.1-4.5.3-6.6.6-2.9 1.7-5.7 2.5-8.6.6-2.3-.2-3.7-2.5-4.5-.7-.3-1.5-.6-2-1.2-.8-.9-.7-2 0-2.9.9-1.2 2.2-1 3.5-.7 4.4 1.3 8.8 2.5 13.2 3.8.5.1 1.2.2 1.4.6.6.7 1.3 1.6 1.3 2.4 0 1.2-1.1 1.9-2.3 2-.5 0-1-.1-1.6-.2-1.5-.2-2.6.6-3.3 1.8-.9 1.6-1.6 3.2-2.3 4.9-.6 1.5-.4 1.8 1.3 1.8 2.1 0 4.2-.2 6.3-.2 3.1.1 5.7-1.1 8.2-2.6 2-1.2 2.8-3 3-5.3.2-1.5.1-3.2.7-4.5 1.3-2.9.5-5.5-.4-8.1-.1-.3-.5-.7-.8-.8-.2-.1-.6.3-.8.6-.2.3-.3.7-.5 1-.9 2.1-1.5 2.5-3.7 2.2-.7-.1-1.4-.2-2-.4-6.6-1.9-13.3-3.7-19.9-5.6-2.7-.8-3.7-2.2-3.8-5.1 0-.3-.2-.9-.4-.9-.4 0-.8.1-1.1.3-.6.5-1.2 1.2-1.8 1.8-.8.7-1.7.7-2.6.1-2.3-1.3-4.6-2.6-6.8-4-4.6-2.8-9.2-5.7-13.8-8.7-.9-.6-1.7-1.6-2.1-2.6-.4-1.3-.9-1.4-2.1-1-1.3.5-2.5.3-3.5-.8l-16.8-17.4c-1.5-1.6-1.5-3-.3-4.9.3-.5.4-1.1.6-1.6-.6.1-1.2.1-1.7.3-2.1 1.1-3.5.7-4.7-1.4-2.2-3.7-4.3-7.5-6.5-11.2-1.7-3-3.3-6-5-9-1.3-2.3-1.2-3.1.6-5.1.5-.5.9-1.1 1.3-1.6-.1-.2-.1-.3-.2-.5-.7.1-1.4.1-2 .2-1.5.3-2.8 0-3.4-1.5-.7-1.7-1.5-3.4-2-5.2-1.5-5.8-2.7-11.7-4.2-17.5-.6-2.3-.5-4.3 1.8-5.6.3-.2.6-.9.5-1.2-.1-.3-.7-.5-1.1-.7-.5-.1-1-.1-1.6-.2-1.4-.1-2.2-.9-2.4-2.3-.1-.7-.2-1.4-.2-2v-12.2c0-3.5.1-7 .2-10.4.1-1.7.9-2.8 2.5-3.5.8-.3 1.4-.9 2.1-1.3-.7-.5-1.3-1.1-2-1.6-.1-.1-.2-.1-.3-.1-1.5-.8-1.9-1.8-1.5-3.4.4-1.5.7-3.1 1.2-4.6.7-2.5 1.6-4.9 2.3-7.4 1-3.6 1.9-7.3 3-10.9.7-2.3 2-3 4.4-2.7.5.1 1 .1 1.5.1.1-.1.2-.3.3-.4-.7-.8-1.4-1.7-2.2-2.5-1.2-1.4-1.3-2.3-.3-3.8 1.9-3.1 3.8-6.3 5.7-9.5 2.2-3.7 4.4-7.4 6.8-11.1.6-.8 1.6-1.6 2.6-1.9 1.3-.4 1.5-1 1-2.1-.7-1.5-.2-2.6.9-3.7 2.3-2.2 4.5-4.5 6.7-6.7 3.4-3.4 6.9-6.8 10.4-10.2 1.5-1.5 2.9-1.5 4.5 0-.3.6.3.9.8 1.2zm245.9 177.8h.4c-.1-1.2-.1-2.3-.3-3.4-.1-.5-.6-1.2-1.1-1.4-.4-.1-1 .5-1.5.9-.3.2-.4.6-.6.9-.9 1.8-1.7 3.6-2.7 5.4-1.8 3.1-3.7 6.1-5.6 9.2-.7 1.1-1.1 2.4-1.8 3.5-2.3 3.7-4.7 7.2-7 10.9-1 1.6-2.2 2.3-4 2.4-2.1.1-2.4.7-1.4 2.6 1.4 2.5 1.3 3.3-.7 5.2-5.1 5-10.2 10.1-15.4 15.1-3.5 3.4-6.9 6.8-10.4 10.2-1.6 1.6-3.2 1.4-4.8-.2-.8-.8-1.7-1.5-2.7-2.2-.3-.2-1-.3-1.1-.1-.3.3-.4.9-.3 1.3.4 1 1 2 1.5 3 1.3 2.4 1 3.9-1.3 5.4-1.2.8-2.4 1.5-3.6 2.2-2.3 1.4-4.5 2.8-6.8 4-6 3.3-12 6.5-18 9.8-.4.2-.8.5-1.2.8-3.3 2.5-5.4 2.1-7.7-1.3-.5-.7-1.6-1-2.4-1.4-.1.8-.3 1.6-.4 2.5 0 .2.2.5.2.8 1 3.2-.2 5.2-3.5 5.9-1.4.3-2.9.6-4.3 1-6.3 1.7-12.7 3.5-19 5.3-.1 0-.2 0-.3.1-3.1.7-6.2 1.4-9.2 2.2-2.3.6-4.4-.1-5.4-2.3-.6-1.2-.9-2.6-1.5-3.8-.2-.5-.8-.9-1.2-1.3-.4.4-1 .8-1.2 1.3-.3.8-.4 1.8-.4 2.6-.1 4.5-.9 5.4-5.4 5.4-6.3 0-12.6 0-18.8-.1-5.2-.1-10.3-.3-15.5-.6-2.5-.1-3.6-1.5-3.7-4 0-.9-.1-1.8-.2-2.7-.1-.4-.4-.9-.7-.9-.4 0-1 .2-1.2.6-.7 1.2-1.4 2.3-2 3.6-1.1 2.7-2.1 3.3-4.9 2.6-4-1-8.1-2-12.1-3.2-1.7-.5-3.2-1.3-4.9-1.7-5.3-1.4-10.6-2.7-15.8-4.1-3.1-.9-4.4-3.3-3.6-6.5.1-.4.2-.9.2-1.2-.1-.5-.3-1.3-.7-1.4-.4-.1-1.2.2-1.5.5-.7.8-1.2 1.7-1.8 2.6-1.4 2-3 2.3-5.2 1.1-2.9-1.7-5.9-3.5-8.8-5.2-1.6-1-3.1-2.2-4.8-3-5.6-2.8-10.8-6.3-16-9.8-1.7-1.1-3-2.6-2.7-4.8 0-.5-.1-1-.2-1.5-.5.1-1 .2-1.5.4-.6.2-1.1.7-1.7.9-1.4.5-2.7.6-3.8-.5-2.3-2.3-4.6-4.5-6.8-6.8-3.2-3.3-6.4-6.6-9.5-9.9-3-3.1-6-6.2-8.9-9.4-1.8-1.9-1.7-4 .2-5.9.6-.6 1.1-1.3 1.6-2 .3-.4.2-1 .3-1.5-.5 0-1.2-.3-1.6-.1-1 .4-1.9 1.1-2.9 1.7-2 1.2-3.4.9-4.7-1-1.6-2.4-3.2-4.7-4.7-7.1-1.3-2.1-2.6-4.3-3.8-6.5-1.5-2.7-2.9-5.4-4.3-8.1-1.9-3.5-3.8-7.1-5.5-10.7-.9-1.8-.4-3 1.1-4.3.9-.8 1.7-1.7 2.5-2.6.2-.3.4-.9.3-1.1-.2-.3-.7-.4-1.1-.4-1.6.2-3.1.5-4.7.8-1.2.3-1.8 1-1.9 2.2-.1 1.8-.2 3.6-.1 5.4 0 2.8.2 5.6.3 8.4V307c0 2.7-.1 5.5-.2 8.2 0 .7.1 1.5.1 2.2.1 1.5.2 3 .2 4.5 0 3.3-.1 6.6-.1 9.9 0 3.5.2 7.1.1 10.6-.1 4.8-1 9.6.1 14.4.2.8.1 1.6 0 2.4-.1 2-.3 4.1-.3 6.1v30c0 4.5-.1 9.1-.1 13.6 0 2.7 1.2 4.3 4 4.5 2.9.2 5.9.2 8.9.2 4.7-.1 9.4-.2 14.1-.4 1.2-.1 2.5-.4 3.7-.6 1.2-.1 2.5-.3 3.7-.2 4 .3 7.9.9 11.9 1 3 .1 6.1-.5 9.1-.6l20.5-.6c4.9-.1 9.7 0 14.6 0l26.8-.3c7.8-.1 15.5 0 23.3-.1 8 0 15.9-.1 23.9-.1 12.8 0 25.5 0 38.3-.1 4.1 0 8.1-.1 12.2-.1 14.4-.1 28.8-.3 43.2-.5 8.8-.1 17.7-.1 26.5-.2 3.5 0 7 .5 10.4-.5.6-.2 1.4-.1 2 0 3.5.3 7 1 10.5-.1.5-.2 1.2-.1 1.7-.1 8.9 0 17.7-.1 26.6-.1.3 0 .6-.1.9-.1 2-.5 3.1-2.1 3-4.6-.1-1.7-.2-3.4-.3-5l-.3-15.5c0-2.4 0-4.8.1-7.2 0-1.3.1-2.7.2-4 0-1.2-.1-2.5-.1-3.8 0-.8.1-1.6.1-2.4-.1-2.3-.2-4.7-.4-7 0-.5-.1-1-.1-1.6-.2-2.1-.4-4.3-.5-6.4-.1-2.4-.5-5 .2-7.2 1-3.2.3-6.3.3-9.4-.1-2.4-.1-4.7-.1-7.1 0-.9-.2-2 .2-2.8 1-1.8.7-3.4-.1-5.1-.8-1.6-.9-3.2-.2-4.9.4-.9.4-2.2.1-3.2-.4-1.5-.2-2.8.3-4.3.4-1 .2-2.1.2-3.2-.1-2.2-.3-4.5-.5-6.7-.1-.9 0-1.9-.1-2.8.1-2.2-.1-3.7-.4-5.1zm-80.4-53.1c1.9-1.4 2.6-2.9 2.9-4.7.2-1.1.2-2.4.7-3.4.3-.6 1.2-1.2 1.9-1.2.5 0 1 .9 1.4 1.5.2.2.1.6.2.9.1 1.8 1.1 2.8 2.8 3.1 1 .2 2 .3 2.9.6 5.7 1.6 11.3 3.3 17 4.9 1.3.4 2.3.2 3-1.1 1.8-3.4.2-8.2-3.3-9.9-.8-.4-1.6-.8-2.3-1.4-1.6-1.3-1.4-2.5.5-3.2 1.5-.6 3.1-1.1 4.5-1.9 2.4-1.2 3.6-3.4 3.8-6 .1-1.9-1-3.2-2.9-3.2h-21.1c-1.7 0-2.8 1-3.5 2.5-.1.3-.2.8-.4 1-.4.4-.9 1-1.3 1-.5-.1-1.1-.6-1.4-1-.3-.4-.4-1-.3-1.5.5-3.1.6-6.3.1-9.4-.2-1.1.4-2 1.5-2.3 1.2-.2 1.8.6 2.1 1.5.9 2.4 2.6 3.2 5 3.1 6.3-.1 12.7 0 19 0 1.3 0 2.5-.4 2.8-1.8.4-2.1.4-4.1-1.2-5.8-1.7-2-3.7-3.5-6.5-3.4-1.2 0-2.1-.4-2.3-1.7-.2-1.3.5-2.1 1.7-2.6 4.8-2.1 5-5.2 4.6-9-.2-2.2-1.7-2.8-3.8-2.1-1.7.6-3.5 1-5.3 1.4-.8.2-1.6.4-2.5.6-4 1.1-8 2.2-12 3.2-1.6.4-2.5 1.3-2.6 3 0 .6.1 1.2-.2 1.7-.3.6-.7 1.2-1.3 1.4-.5.2-1.3-.1-1.6-.5-.5-.7-1.2-1.7-1.1-2.5.2-3-.8-5.6-2-8.2-.5-1-.3-2 .7-2.6 1.1-.6 1.9 0 2.6.9l.6.9c.8 1.1 1.8 1.5 3.2 1.2 6.9-1.8 13.8-3.7 20.8-5.5 1.5-.4 2.5-1.7 2-3.1-1.3-3.4-4.5-7.5-9.3-6.4-.5.1-1.1.1-1.6 0-1.5-.2-1.9-1.1-1.1-2.3.8-1.1 1.6-2.3 2.6-3.2 2.9-2.5 1.9-6.6.6-9.1-.7-1.4-1.8-1.7-3.2-1-.7.4-1.4 1-2.1 1.4-5.2 3-10.5 5.9-15.7 8.8-3 1.7-3.2 2.2-2 5.3.5 1.2-.2 2.3-1.5 1.9-1-.3-2-1.1-2.6-2-1.6-2.4-2.9-5-4.3-7.5-.5-1-.9-2 0-2.9 1-1 2-.2 2.8.5 2.4 1.9 2.4 1.9 5 .3.2-.1.5-.2.7-.4 4.2-2.4 8.4-4.8 12.7-7.2 1.6-.9 3.1-1.8 4.6-2.8 1-.6 1.3-1.5.9-2.6-.6-2-4.5-5-6.6-4.9-1.5.1-2.9.7-4.4.9-1 .1-2-.1-3-.2.1-.9.2-1.9.4-2.8.1-.3.3-.5.5-.8 2.4-3.9 2.2-6.5-.5-10.2-1.4-1.9-2.6-2-4.3-.3-1.8 1.7-3.5 3.5-5.2 5.3-3.1 3.1-6.1 6.2-9.2 9.1-2.2 2-2.3 2.7-.6 5.2.4.5.3 1.4.4 2.1-.8.1-1.6.2-2.3.2-.4 0-.8-.5-1.1-.8-2.1-2.2-4.3-4.4-6.4-6.6-1.1-1.2-1.5-2.7-.7-3.4 1.1-1 2.1-.2 2.9.5 1.3.9 2.5.9 3.6-.2 5.2-5.1 10.5-10.3 15.6-15.5.5-.5.8-1.8.5-2.5-.8-2.1-5.1-4.1-7.3-3.4-1.9.7-3.7 1.8-5.6 2.5-.7.3-1.6.1-2.4.2.1-.8-.1-1.7.3-2.3.9-1.5 1-3 .9-4.7-.3-3-2.4-4.6-4.6-6.1-1.1-.7-2.4-.1-3.2 1.2l-9.9 17.1c-1.9 3.3-2 3.3.4 6.1.1.2.3.3.4.5.1.5.4 1.3.1 1.6-.3.4-1.1.8-1.6.7-.9-.2-1.8-.6-2.6-1.1-2.1-1.2-4.2-2.6-6.3-3.9-1.1-.7-2.7-1.3-2.1-2.9.5-1.5 2-1 3.3-1 .9 0 2-.3 2.6-.9 1-.9 1.7-2.2 2.4-3.3 3.1-5.1 6.2-10.3 9.3-15.4.9-1.5.5-2.7-1-3.5-.7-.3-1.4-.5-2-.9-1.7-.9-3.4-1-5 0-1.4.9-2.7 1.9-3.9 3.1-.9.8-1.7 1.7-3 1.2s-1-1.8-1-2.9v-.3c.4-4.4-1.3-7.2-5.4-8.8-1.2-.5-2.3-.3-2.9 1-.5 1.2-1.1 2.4-1.5 3.7-1.4 4.8-2.7 9.7-4 14.5-.8 2.9-1.9 5.9 1.8 7.8.4.2.6 1.3.4 1.8-.2.5-1.1.9-1.6.9-.9 0-1.7-.4-2.6-.7-1.8-.5-3.5-1-5.3-1.5-.8-.2-1.7-.4-2.4-.7-1-.4-1.8-1.1-1.5-2.3.3-1.1 1.2-1.4 2.2-1.3 1.3.1 2.3-.5 2.7-1.7.6-1.6 1.2-3.3 1.7-4.9.3-1.1.4-2.2.7-3.2 1.3-4.4 2.6-8.8 3.8-13.2.3-1.2.1-2.3-1.2-2.7-2.3-.8-4.6-1-6.9.2-2.1 1.1-3.1 2.9-4.1 4.9-.3.6-1.2 1.5-1.6 1.4-.7-.1-1.4-.9-2-1.5-.3-.3-.3-.9-.4-1.3-.7-4.1-3.8-6.7-7.9-6.6-1.9.1-2.8 1.2-2.6 3.1.1 1.3.2 2.6.2 4 0 5-.1 9.9-.2 14.9 0 2.6.5 4.9 3.6 5.5.4.1 1.1.8 1 1.2-.1.6-.6 1.4-1 1.5-1 .3-2.1.3-3.1.3h-6.2c-.7 0-1.5.2-2.2 0-.6-.2-1.5-.9-1.6-1.5-.1-.5.6-1.2 1.1-1.8.3-.3.8-.4 1.3-.6 1.3-.6 1.8-1.6 1.8-2.9.1-7 .1-13.9.2-20.9 0-1.4-.6-2.3-2-2.6-2.3-.5-4.3 0-6 1.6-1.6 1.5-2.9 3.1-3 5.5-.1.8-.9 2-1.7 2.3-1.2.5-1.9-.7-2.4-1.8-.2-.5-.5-.9-.8-1.4-1.8-2.7-4.2-4.2-7.5-4.1-3.2.2-4.1 1.5-3.2 4.6.5 1.6 1 3.2 1.4 4.9 1.2 4.7 2.4 9.4 3.7 14.1.7 2.5 1.6 3.1 4.2 3.1 1.5 0 2.2 1.1 1.3 2.3-.4.6-1.3 1.1-2 1.3-2.8.8-5.7 1.5-8.5 2.3-.4.1-.7.1-1.1.1-1.5 0-2.3-1.3-1.5-2.6.3-.5.8-1 1.3-1.3 1.5-.8 1.7-2 1.3-3.5-1-3.6-1.9-7.3-2.8-10.9-.7-2.5-1.3-5.1-2-7.6-.3-1-.5-1.9-1-2.8-.5-1.1-1.5-1.5-2.6-1.1-3.9 1.4-7.1 5.2-6.1 9.3.1.4.1.8 0 1.3-.3 1.7-1.6 2.3-3 1.2-.7-.5-1.2-1.1-1.8-1.7-3.1-3.2-5.9-3.6-9.7-1.4-1.8 1-2.1 2.3-.8 3.9.5.7 1.1 1.3 1.5 2 2.7 4.8 5.4 9.5 8 14.4 1.3 2.3 2.8 3.8 5.6 3.1.3-.1.6 0 .9 0 1.2.2 1.7 1.2 1 2.2-.3.4-.7.8-1.2 1-2.8 1.7-5.6 3.4-8.4 5-1 .5-2.1 1-3-.2-.9-1.2 0-1.9.8-2.7l.3-.3c1.3-1.2 1.5-2.5.5-4-1.1-1.7-2.2-3.5-3.2-5.3-2.5-4.3-4.9-8.7-7.4-13.1-.9-1.6-2.3-2.1-3.7-1.1-3.1 2.3-5.9 5.7-3.4 10.6.4.7.4 2.4 0 2.7-.8.5-2 .3-3 .3-.3 0-.7-.3-1-.5-3.2-2.6-6.3-2-9.5 0-2.2 1.5-2.4 3.1-.4 4.8.4.3.8.7 1.2 1.1 4.3 4.3 8.6 8.6 12.9 12.8 2.3 2.3 2.4 2.2 5.4.8.1-.1.3-.1.4-.2 1.4-.4 2.4.4 2 1.8-.2.6-.5 1.2-1 1.6-2.3 2.3-4.6 4.5-6.9 6.8-.8.8-1.8 1.5-2.9.7-1.1-.9-.4-1.9.1-2.8 1.3-2.2 1.2-2.8-.6-4.6-2.9-2.8-5.7-5.6-8.5-8.5-2-2-3.9-4.2-5.8-6.2-.8-.9-1.8-1.7-3-.9-2.1 1.4-4.8 5.3-3.2 8.8.6 1.2 1.6 2.3 2.1 3.5.4.7.3 1.7.4 2.5-.8.1-1.7.4-2.3.2-4.3-1.7-7.5-.1-10.3 2.9-1.1 1.2-1 2.6.3 3.5.5.4 1.1.7 1.6 1 4.9 2.9 10 5.5 14.7 8.6 2.8 1.8 5 2.8 7.6 0 .3-.4 1.6-.4 1.9-.1.4.3.5 1.3.5 2 0 .5-.5 1-.8 1.5-1.3 2.2-2.6 4.3-3.9 6.5-.3.5-.6 1.1-1 1.6-.6.8-1.5 1.3-2.5.8s-.9-1.4-.6-2.4c.6-2.3.4-3.1-1.7-4.3-4.1-2.4-8.3-4.6-12.4-7-2-1.1-3.8-2.4-5.7-3.6-.9-.6-1.8-.8-2.7.1-3.1 3.3-2.8 8 .5 11 .6.5 1.4.9 1.8 1.5.4.6.7 1.6.5 2.3-.2.4-1.3.8-2 .7-4.7-.8-7.8 1.4-9.9 5.3-1 1.8-.2 3.4 1.9 3.9 2.6.6 5.2 1.3 7.8 2l12.3 3.6c2 .6 3.2.1 4.3-1.6.6-.9 1.2-1.7 2.4-1.1 1.2.5 1 1.6.7 2.6-.9 3-1.7 6-2.5 9-.3 1.1-1 1.9-2.2 1.9-1.3-.1-1.6-1-1.6-2.1 0-2-1.1-3.2-2.9-3.7l-8.7-2.4c-3.6-1-7.3-2-10.9-3-1.3-.4-2.6-.4-3.1 1-1.1 2.8-1.3 7.5 2.5 9.7.7.4 1.6.7 2.2 1.2.7.6 1.8 1.3 1.8 2 .1 1.3-1.2 1.6-2.3 1.9-1.3.5-2.7.9-3.9 1.6-2.4 1.4-3.6 3.5-3.6 6.3 0 1.9 1 2.9 3 2.9 1.2 0 2.3-.2 3.5-.2 5.5.1 11.1.1 16.6.2 2.5 0 3.4-.5 4.3-2.8.4-1 .7-2 2-1.8 1.3.2 1.3 1.4 1.4 2.4v.6c0 2.8.1 5.6-.1 8.4-.1 1-.5 2.4-1.2 2.8-1.3.7-1.8-.8-2.3-1.7-.1-.1-.2-.3-.2-.4-.7-1.6-2-2.3-3.6-2.3-6.8 0-13.5 0-20.3-.1-1.9 0-3.1 1.1-3 2.9.1 1.3.4 2.6 1 3.7 1.5 2.7 3.6 4.7 7.1 4.4 1-.1 2 .4 2.3 1.6.2 1.1-.3 1.9-1.3 2.4-.3.2-.6.4-1 .5-3.6 1.9-5 5.2-3.9 9.1.5 1.8 2 2.5 3.7 1.7.7-.3 1.5-.6 2.2-.8 5.4-1.5 10.8-2.9 16.2-4.3 3.5-.9 3.5-1 4-4.5.1-.5.4-1.3.7-1.4.5-.1 1.4.1 1.6.5.7.9 1.2 1.9 1.5 3 .3 1.2.2 2.4.4 3.6.1.5.6 1 .9 1.5.2-.5.6-1 .6-1.5.3-3.7.3-7.5 1-11.2.4-2.7.9-5.1-.5-7.6-.2-.3-.2-.7-.2-1.1l.3-8.7c0-.4.4-.9.7-1.1 1.4-.6 1.5-1.7 1.4-3-.1-.8-.4-1.7-.1-2.3.8-2 .2-3.6-.7-5.4-.5-.9-.6-2.1-.3-3.1.6-2.8 1.4-5.5 2.3-8.2.8-2.7 1.3-5.5 3.4-7.5 1-1 1.2-1.8.8-3.1-.2-.6-.2-1.5.1-2.1 1.7-3 3.4-5.9 5.3-8.8 1.4-2.2 2.4-4.7 4.8-6.2.5-.3.7-1.3 1-1.9.6-1.1.9-2.4 1.7-3.2 2.7-2.8 5.6-5.5 8.4-8.3.8-.7 1.4-2.1 2.2-2.2 2.7-.4 3.8-2.6 5.5-4.1 2.3-1.9 5.1-3.1 7.7-4.6.9-.5 1.7-1 2.6-1.5 1.9-1.2 3.7-2.9 6.3-2 .4.1 1.1-.4 1.6-.8.9-.6 1.5-1.7 2.5-2 2.7-.9 5.5-1.5 8.2-2.2 1-.3 2-.6 3-1 2.3-1 4.5-1.7 6.6.4.7.7 1.7.7 2.1-.3 1-2.1 2.7-2.3 4.7-2.2 3.5.2 7.1.4 10.6.2 2.2-.1 4 .2 5.4 1.9.7.8 1.5 1 2.2.2 1.4-1.6 3-1.3 4.8-.7 2.3.8 4.6 1.3 7 2 2 .6 4 1.1 5.9 1.9.8.3 1.5 1 2 1.7.8 1.1 1.6 1.5 2.8.9 1.2-.6 2.1-.3 3.2.5 1.9 1.4 4.1 2.4 6 3.7 2.6 1.7 5 3.6 7.6 5.4.6.4 1.2 1.1 1.9 1.2 1.8.3 3.2 1.3 4.4 2.6 3 3.2 6.3 6.1 8.8 9.6 1.7 2.3 3.3 4.5 5.4 6.5 1.3 1.2 2 3 2.8 4.5 1.5 2.7 3 5.4 4.4 8.2.4.8.6 1.9.4 2.7-.3 1.2.2 1.8 1 2.6.9.9 1.7 1.9 2.2 3.1 1.4 3.3 1.4 7 2.8 10.4.8 2 .7 4.4 1 6.7.1.7.2 1.5.6 2.1 1.5 2.2 1.5 4.7 1.1 7.2-.2 1.4-.3 2.8-.4 4.2-.1 2.7.5 5.4-.4 8-.2.5 0 1 0 1.6.1 2.8.2 5.6.4 8.3.3 3.4.7 6.6 1.1 10.2zm-145.5-29.7c-2.2 1.8-4.5 3.6-6.7 5.5-3.3 2.8-4.8 6.8-6.9 10.3-.2.3-.4.8-.3 1 .1.4.7.9.9.8 1.8-.4 3.5-.9 4.7-2.6.4-.6 1.3-.9 2-1.4.5.8 1.1 1.6 1.4 2.5.4 1.1.6 2.3.8 3.5.1.7 0 1.4 0 2.2-.8 0-1.7.2-2.3-.1-1.5-.8-2.9-1-4.4-.4-1.2.4-2.6.6-3.7 1.3-.9.5-1.9 1.3-2.3 2.2-.5 1.5-.6 3.1-.7 4.7 0 .4.3 1 .6 1.4 1.2 1.3 1.2 2.1-.3 3-1.2.8-1.7 1.8-2 3.1-.1.8-.3 1.7-.4 2.5-.3 2.9-1.3 5.4-3.7 7.1-1.7 1.2-1.8 2-.6 3.9.9 1.4 1.9 2.8 2.6 4.3.3.7.1 2-.4 2.5-.8.9-1.7.1-2.4-.6-1.7-1.7-2.6-1.9-4.6-.7l-13.2 7.8c-1.5.9-3.1 1.6-4.6 2.5-1.4.8-2.1 2.1-1.4 3.1 2.3 3.5 5 6.4 10.2 4.2 1.2-.5 2.6-1.3 3.7 0s0 2.4-.8 3.5c-2.6 3.7-2.2 7.9 1.1 10.8 1 .9 1.9 1.1 2.9.1.8-.7 1.5-1.5 2.2-2.3 4.3-4.2 8.6-8.4 12.9-12.7 2.3-2.2 2.2-2.2.6-5.1-.4-.7-.1-1.6-.1-2.5.9.1 1.9 0 2.6.4 1 .6 1.7 1.6 2.5 2.4 1.7 1.7 3.4 3.4 5 5.3.6.7 1.3 1.8.4 2.7-.9.9-2 .4-2.9-.3-.1-.1-.2-.1-.2-.2-1.1-.9-2.3-.9-3.3.1-5.3 5.2-10.7 10.4-15.9 15.7-.5.5-.7 1.9-.4 2.5 1.1 2.5 5.3 4.2 7.8 3.3 1.6-.6 3.1-1.6 4.6-2.2.7-.3 1.6-.2 2.5-.3 0 .8 0 1.7-.1 2.5-.2 1.4-.9 2.7-.9 4.1 0 3.2 2.4 4.9 4.8 6.5.4.3 1.6 0 2-.5.9-.9 1.6-2 2.2-3.1 3-5 5.8-10.1 8.9-15.1 1.7-2.9 1.8-3-.3-5.5-.7-.8-1.5-1.9-.5-2.7.5-.4 1.8 0 2.7.1.2 0 .3.2.5.3 1.8 1.1 3.6 2.1 5.4 3.2 1 .6 2 1.2 2.8 2 .5.5.6 1.5.8 2.2-.7.2-1.5.7-2.2.7-3-.3-3.6-.1-5 2.4-3 5.2-6 10.4-9.1 15.5-2.2 3.6-2.2 3.9 1.5 6 2.1 1.1 4.2 1.2 6.1-.1 1.2-.8 2.2-1.9 3.3-2.9.9-.8 1.7-1.8 3-1.2 1.3.6 1.1 1.8 1 2.9-.5 5.6 1.2 7.5 5.3 8.9 1.4.5 2.5.2 3.2-1.2.4-.7.6-1.5.8-2.2.5-1.9 1-3.9 1.6-5.8 1.2-4.4 2.5-8.8 3.7-13.3.4-1.5.1-2.7-1.6-3.3-1.5-.6-2.2-1.8-1.7-2.8.7-1.4 1.9-1.2 3-.9l8.7 2.7c1 .3 2 .8 1.9 2-.1 1.3-1.3 1.5-2.3 1.5-1.8 0-2.7 1.1-3.3 2.5-.3.8-.6 1.6-.8 2.4-1.6 5.9-3.1 11.7-4.7 17.6-.6 2.3.1 3.4 2.4 3.9 4.1.8 7.2-.8 9.1-4.6.3-.6.7-1.4 1.2-1.6 2.8-1.1 3-3.4 2.5-5.7-1.1-4.7.7-9.3-.3-14 0-.1 0-.3.1-.5.2-2.4.6-4.8.7-7.2.1-2.3-.7-3.1-3-3.4-.7-.1-1.4-.1-2-.3-3.6-1-7.1-2-10.6-3.3-1.2-.4-2.4-1.3-3.3-2.2-.8-.9-1.6-1.3-2.6-.8-1.1.6-2 .3-2.9-.3-1.7-1.1-3.4-2.1-5.1-3.2-3.1-2.1-6.1-4.2-9.2-6.3-.6-.4-1.2-1-1.9-1.1-2-.1-3.2-1.5-4.4-2.8-2.6-2.7-5.2-5.3-7.7-8.1-.9-1.1-1.8-2.3-2.2-3.7-.3-1-.8-1.6-1.6-2.1-.9-.5-1.8-1.1-2.4-2-1.3-1.9-2.4-3.9-3.4-5.9-.9-1.8-.3-3.3 1.7-4 1-.4 2-.8 2.9-1.3 3.2-1.9 6.4-3.9 9.7-5.7 1.2-.6 1.9-1.3 2.1-2.7.1-.6.6-1.6 1.1-1.7.5-.1 1.4.5 1.8 1 .9 1.4 1.7 2.9 2.4 4.5.2.6.3 1.6 0 2-.4.4-1.3.1-2 .1-.9 0-2-.5-2.7-.1-3.9 2.1-7.7 4.3-11.5 6.6-1.8 1.1-1.8 2.7-.1 3.9 1.6 1.2 3.2 1.7 5.2 1.1.7-.2 1.7.3 2.5.4-.2.8-.2 1.7-.5 2.4-1.1 2-.9 4.6.6 6.2.8.9 1.8 1 2.8.3.5-.3.9-.8 1.3-1.2 2.5-2.5 5-5.2 7.6-7.6 1.3-1.2 2-2.4 1.6-4.2-.1-.4.1-1.3.4-1.4.4-.2 1.2-.1 1.6.2 1.6 1.5 3.1 3.2 4.5 4.8.3.4.5 1.3.2 1.6-.3.4-1.1.3-1.7.5-1.1.2-2.5.1-3.2.7-3.3 3-6.5 6.2-9.6 9.5-1 1.1-.7 2.3.6 3 1.7.9 3.5 1.5 5.4.3.4-.3.9-.4 1.3-.5 1.5-.3 2.1.1 1.8 1.6-.5 2.1 0 3.8 1.3 5.5 1.2 1.6 2.9 1.7 4-.1 2.2-3.7 4.4-7.5 6.6-11.2.7-1.2.8-2.3-.1-3.6-.3-.4-.4-1.5-.1-1.8.3-.3 1.3-.4 1.8-.2 1.6.8 3.2 1.7 4.6 2.8 1.7 1.3 1.4 2.4-.4 3.4-1.3.7-2.7 1.6-3.5 2.8-2.1 3.1-4 6.4-5.9 9.7-.7 1.2-.5 2.5.6 3 1.9.7 4.1 1.3 6-.7.9-.9 1.8-1.9 3.2-1.2 1.3.6.7 1.9.7 3 0 1.2 2.2 4.2 3.4 4.3.4.1 1 0 1.2-.3.6-.7 1.3-1.4 1.6-2.2 1-3.3 1.7-6.6 2.8-9.9.6-1.9.9-3.5-.5-5.2-.3-.4-.4-1.5-.1-1.8.3-.4 1.2-.5 1.8-.4 1 .2 1.9.8 2.9.9.8.1 1.9.2 2.5-.3.4-.3.6-1.6.3-2.1-.4-.6-1.3-1.1-2-1.4-.9-.4-1.8-.4-2.7-.7-1.9-.7-3.8-1.4-5.6-2.2-2.5-1.2-5.3-2.1-7.4-3.8-1.6-1.2-3.2-2.1-4.9-3-1.2-.7-6.8-5.4-7.5-6.6-.1-.1-.1-.2-.2-.3-.6-.7-1.2-1.3-1.7-2-1.5-1.9-3.2-3.7-4.5-5.7-1.3-1.9-2.9-3.7-3.1-6.2 0-.1-.1-.2-.2-.2-1.5-1-1.9-2.4-2.1-4.1-.1-.5-.5-1-.7-1.6-.4-.9-1-1.8-1.2-2.7-.8-3.4-1.4-6.8-2.1-10.2-.3-1.2-.9-2.3-1.2-3.4-.1-.5-.1-1.5.2-1.6.5-.2 1.2-.1 1.7.1 1.1.6 2.3 1.3 3.2 2.2.5.5.6 1.5.6 2.2-.1.6-.7 1.1-1 1.7-.4.8-.6 1.6-.9 2.4.9.2 1.9.4 2.8.5.3 0 .7-.2 1-.4 2.6-1.2 5.7-1.2 8-3.1.7-.6 2-.6 2.5.5.4 1 .5 2.3.2 3.3-.2.5-1.6.9-2.4.8-3.5-.2-6.4 1.6-9.6 2.5-1.3.4-1.3 1.6-.1 2.4.6.4 1.3.7 2 .9 1.8.6 2.2 1.6 1.3 3.3-.4.7-.8 1.4-1 2.1-.4 1.3.1 1.8 1.4 1.7.6 0 1.2-.1 1.6-.5 2.7-2.2 6.3-3 8.6-5.9.8-1 1.7-.5 2.3.4 1.2 1.7 1.4 3.3.4 3.8-.1.1-.3.1-.5.1-3.7.3-6.3 2.9-9.3 4.5-.5.3-.9 1.3-.8 2 0 .4.9.9 1.5 1.1 3 .8 3 .8 3.2 4v.3c.4.7.6 1.8 1.2 2 .6.2 1.6-.2 2.2-.7 1.6-1.4 3.1-3 4.5-4.6.5-.5 1-1.2 1.2-1.8.3-1.1.5-2.1 1.9-1.9 1.5.2 2.9 1.7 2.8 3-.1.5-.4 1.4-.9 1.5-3.2 1.2-5.2 3.9-7.4 6.3-.5.5-.5 1.5-.8 2.2.8.2 1.5.7 2.3.7 3.1-.3 3.2-.2 4 2.8.2.7 1 2 1.2 1.9.9-.2 1.8-.7 2.4-1.4 1-1.4 1.9-2.9 2.6-4.5.6-1.3.9-2.7 1.4-4.1.2-.5.5-1.1 1-1.2 1-.4 3.1.6 3.6 1.6.7 1.3 0 2.2-1 3-2.6 2.1-3.9 5.1-5.4 7.9-.3.5-.3 1.5.1 1.9.3.4 1.2.3 1.9.2.7-.1 1.3-.5 1.9-.8 1.7-.8 2.5-.4 3.1 1.4.2.7.6 1.5 1 2.1.6.9 1.2.7 1.9 0 2.8-2.7 3.7-6.1 3-9.8-.2-1.2-.1-2.1.6-3.1.4-.6.5-1.6.5-2.4-.1-3.3-.3-6.5-.3-9.8 0-4.2.2-8.4.2-12.6 0-3.1-.2-6.1-.2-9.2 0-2.6.2-5.3.3-7.9.1-1.7.1-3.5.2-5.2.1-1.2-.2-2.3-1.3-2.8-1-.5-2.2-.9-3.3-1-2.7-.2-5.4-.3-8.1-.4-.6 0-1.3.1-1.9.2-1 .2-1.7.7-1.8 1.9-.3 1.8-2 2.5-3.2 1.1-1.3-1.4-2.7-1.4-4.3-1.3-1.5.1-1.8.7-1.4 2.1.2.6.4 1.4.2 1.9-.5 1.9-.1 2.7 1.9 2.6 1.1 0 2.3-.4 3.4-.5 1.2-.1 2.2.3 2.3 1.7.1 1.3-.9 1.7-2 1.8-.5 0-1-.1-1.6-.1-1-.1-2-.2-3-.2-1.1.1-1.6.7-1.3 1.8.2 1.1.2 2.2.6 3.2.2.5.8 1.3 1.2 1.2 1.3-.2 2.6-.5 3.9-.9.6-.2 1.1-.8 1.7-.8.7 0 1.6.4 1.9.9.5.9 0 1.8-.9 2.2-.4.2-.9.2-1.4.3-.9.2-1.9.3-2.8.5-2.2.6-2.5 1.5-1.4 3.4.3.6.8 1.2.8 1.8.1 1.6 1 1.7 2 1.1 1.2-.7 2.3-1.7 3.5-2.4.7-.4 1.5-.6 2.3-.6.3 0 .9.9.8 1.1-.4.7-.9 1.4-1.5 1.8-.9.6-2 .9-3 1.4-1.6.8-1.8 2.1-.6 3.4.4.4.7.9 1 1.4 1 2 2.6 2.2 4 .4.7-.9 1.3-1.8 2-2.7.7-.9 1.7-1.5 2.7-.6 1 1 .3 2-.5 2.7-.9.8-1.9 1.4-2.9 2.2-.9.7-1.5 1.8-.7 2.6 1 1.1 2.5 1.9 3.8 2.7.2.1.9-.2 1.2-.4 1.4-.9 1.8-2.5 2.3-4 .2-.6.9-1.1 1.5-1.3.3-.1 1.3.4 1.3.7.1.7-.1 1.5-.4 2.2-.1.3-.7.5-1 .7-1.2.9-1.5 2.2-1.4 3.7.1 1.3 1.3.9 2 1.3.5.3.9 1.1 1 1.7 0 .3-.9.8-1.5.9-.4.1-1-.1-1.3-.4-1.7-1.2-4.1-1.4-5.5-3.3-.2-.3-.8-.3-1.1-.5-.6-.3-1.2-.5-1.6-.9-2.1-2.1-4.1-4.3-6.1-6.4-2.7-2.9-3.6-6.9-5.5-10.3-.7-1.2-.7-2.7-1-4.1-.1-.4-.1-.8-.3-1.1-1.3-2.2-1.3-4.7-1.3-7.1.1-2.4.3-4.8.6-7.2.2-1.8-.3-2.2-2-1.8-1.4.4-2.9.6-4.3 1.1-1.4.4-2.8.9-4.1 1.5-1.2.5-2.3 1.3-3.3 2-.4.3-.7.7-1 1.1.4.2.9.7 1.3.6 2.1-.2 4.3-.6 6.4-.8.8-.1 2.2.1 2.2.4.3 1.3.3 2.7.1 4 0 .3-1.4.5-2.2.5-1.7 0-3.4-.3-5.2-.4-1-.1-2.1 0-3.1-.2-2.1.5-3.3 0-2.7-1.7zm2.8-25.7c.4-1.4.9-2.8 1.4-4.2.1-.3.2-.6.5-.8 1.9-1.3 2.2-3.6 3.5-5.3.8-1.1 1.7-2.1 2.6-3.1.4-.5.8-1.1 1.3-1.6 2-1.9 3.8-4 6-5.8 1.7-1.5 3.7-2.7 5.6-3.9 2.3-1.4 4.7-2.8 7.2-4 2-1 4.1-1.7 6.2-2.4 1.3-.4 2.6-.7 4-1 .9-.3 1.8-.7 2.8-.9.9-.2 2-.6 2.8-.3 1.3.5 2.4.3 3.6-.3.9-.5 2.1-.8 3-.7 3.5.7 7.2-.8 10.6 1.2 2.5-.9 4.7-.2 7 .9 1.3.6 2.9.6 4.3 1 2.4.8 4.8 1.6 7.1 2.6 1.9.8 3.6 1.9 5.4 2.8.4.2.6.6.9.9.4.4.8 1 1.3 1.2 2.8 1.1 5 3.1 7.4 4.9 2.5 2 4 4.7 6.2 6.8 1.7 1.7 3 3.8 4.3 5.8.7 1 1.1 2.2 1.7 3.3.4.7.9 1.4 1.3 2.1.4.7 1.1 1.4 1.1 2.1.2 1.9.3 2.3 2.3 2.4 3 .2 6 .3 9 .4.6 0 1.3-.1 1.9-.2 1-.1 2.1-.1 3.1-.2 2.7-.4 5.4-.8 8-1.4 1-.2 1.9-1.1 1.4-2.4-.6-1.6-3.8-3.5-5.6-3.5-.7 0-1.6-.2-1.9-.7-.3-.5 0-1.4.2-2 .2-.5.7-1 1.1-1.3 1.3-1.1 1.5-2.6 1.2-4.2-.4-2-2.1-2.9-3.9-1.8-3.5 2-7 4.1-10.5 6.2-1.3.8-2.2 1.7-2.4 3.3 0 .4-.5 1.1-.8 1.2-.5.1-1.2-.2-1.4-.6-1-1.6-2-3.2-2.8-4.9-.3-.6-.1-1.4-.1-2.1.7 0 1.6-.2 2.2.1 1.2.6 2.2.4 3.3-.3 1.4-.9 2.8-1.7 4.2-2.6 2.4-1.4 4.8-2.9 7.2-4.3 1.2-.8 1.4-1.8.5-2.6-1.7-1.5-3.6-2.8-6.1-1.9-.7.2-2 .2-2.2-.2-.4-.6-.1-1.6 0-2.5 0-.3.4-.6.5-1 .7-1.3.8-2.7.1-4.1-1.2-2.4-2.6-2.7-4.5-.8-2.7 2.7-5.4 5.4-8.1 8-1.3 1.2-2.2 2.4-1.6 4.2.1.4-.1 1.1-.4 1.4-.2.2-1 0-1.3-.2-1.6-1.5-3.1-3-4.5-4.6-.3-.4-.3-1.3-.1-1.7.2-.3 1-.4 1.5-.5 1.1-.3 2.4-.3 3.2-1 3.3-3 6.5-6.1 9.7-9.3 1-1 .8-2.2-.4-2.9-1.8-1-3.6-1.6-5.5-.5-.6.3-1.3.5-1.9.7-1.3.3-2-.3-1.5-1.5.9-2.1.1-3.8-1.1-5.4-1.3-1.8-2.8-1.9-3.9.1-2.2 3.6-4.4 7.3-6.5 11-.6 1.1-.8 2.1 0 3.3.3.5.2 1.3.2 2-.7 0-1.5.3-2.1.1-1.5-.7-3.1-1.4-4.4-2.4-.6-.4-1.1-1.4-1-2.1 0-.5.9-1.2 1.6-1.4 1.6-.6 2.7-1.6 3.5-3 1.7-3 3.5-6 5.3-9 1.4-2.3.8-3.6-1.9-4.1-2.3-.4-3.7 1-5.4 2.1-.6.4-1.6.7-2.1.4-.5-.3-.8-1.2-.9-2-.2-.8.2-1.8-.2-2.3-1-1.3-1.6-3.4-3.6-3.2-2 .2-2.2 2.3-2.6 3.9-.8 3-1.5 6.1-2.5 9.1-.6 1.7-.7 2.9.6 4.3.4.4.5 1.6.2 2-.3.4-1.3.4-2 .4-1.2-.2-2.3-.6-3.5-.8-1.1-.2-2.3-.5-2.4-1.7 0-.8.7-1.9 1.4-2.4 1.3-.9 1.9-2.1 2.2-3.5.2-1 .6-2 .8-3 .7-2.6 1.5-5.2 2.2-7.8.4-1.7-.5-2.8-2.2-2.8-2 .1-3.8.7-5 2.6-.4.7-1.4 1.4-2.1 1.4-.6 0-1.3-1.1-1.5-1.9-.7-2.2-2.7-2.9-4.5-3.7-.3-.1-1.1.2-1.4.5-.5.7-.9 1.5-1 2.2-.1 3.2.2 6.3-.1 9.5-.2 2.5-.1 4.5 1.8 6.4 1.1 1.1.4 2.3-1.1 2.3-1.8.1-3.6 0-5.4-.1-.5 0-1.3-.4-1.5-.8-.2-.3.1-1.2.4-1.5 1.4-1.5 1.8-3.3 1.6-5.3-.1-.8 0-1.6 0-2.4 0-2.7.1-5.5.1-8.2 0-1.9-1.4-3.4-2.6-2.7-1.9 1.1-4.2 1.9-4.5 4.7-.2 1.5-1.4 1.8-2.5.8-.3-.3-.7-.6-.9-.9-1-1.7-2.7-2.3-4.3-3-1.5-.6-2.8.3-2.8 1.9 0 .9.2 1.8.4 2.6.7 2.8 1.5 5.5 2.1 8.3.5 1.9 1.1 3.7 3 4.8.5.3 1 1.4.8 2-.1.6-1 1.2-1.7 1.4-1.3.5-2.8.7-4.2.9-.7.1-1.5-.2-2.2-.3.1-.7.1-1.6.4-2.1.9-1.3 1.1-2.6.6-4.2-.6-1.5-1-3.1-1.4-4.7-.6-2.1-1-4.2-1.8-6.2-.3-.9-1.1-1.9-1.9-2.3-.6-.2-1.7.6-2.3 1.2-1.3 1.3-2.4 2.7-2.3 4.8.1 1.7-1.4 2.2-2.7 1.2-.7-.5-1.3-1.1-2-1.6-1.2-.9-4.3-.9-5.2.1-1.2 1.4-.1 2.6.5 3.7 1.9 3.3 3.7 6.6 5.8 9.8.6.9 1.7 1.5 2.6 2.1.5.4 1.7.9 1.6 1.1-.2.8-.6 1.8-1.2 2.2-1.4.9-3.1 1.7-4.7 2.3-.4.2-1.4.1-1.5-.2-.2-.4-.2-1.3.1-1.7 1-1.3.8-2.5-.1-3.8-.4-.6-.8-1.4-1.2-2.1-1.7-2.9-3.5-5.9-5.3-8.8-.6-1-1.5-1.7-2.8-1.1-1.6.7-2.9 4.3-2.4 6 .2.8 0 1.8 0 2.6-.9-.1-1.9.1-2.6-.2-1.7-.9-3.3-.9-5-.3-2.4.9-2.7 2.5-.9 4.3 2.8 2.7 5.6 5.4 8.4 8.2 1.1 1.1 2.4 1.6 4 1.4.5-.1 1.3.1 1.5.4.2.4.1 1.2-.2 1.6-1.4 1.6-2.9 3.1-4.4 4.5-.4.3-1.2.4-1.7.2-.3-.1-.3-1-.4-1.5-.3-1-.2-2.4-.8-3.1-3-3.3-6.2-6.4-9.5-9.5-1.2-1.1-2.4-.8-3.3.6-1.2 1.8-1.4 3.6-.2 5.6 1.3 2.1.6 2.9-1.8 3-1.4 0-2.8.3-4.1.9-2.5 1.2-2.4 2.9-.1 4.3 2.6 1.6 5.2 3 7.7 4.6 2.2 1.5 4.2 2.9 7.1 1.4 1.1-.6 2.1.5 1.5 1.7-1.1 2-2.2 3.9-3.6 5.7-1 1.2-1.7.8-2.3-.7-.4-1.1-1.1-2.2-2-2.9-3.5-2.4-7.1-4.5-10.7-6.7-1.7-1-3.2-.2-3.7 1.7-.6 2.2.1 3.9 1.8 5.4.5.5.9 1.6.7 2.3-.1.4-1.4.6-2.1.8-.9.3-1.9.5-2.7.9-.6.3-1.1.8-1.6 1.3-.5.6-1.4 1.4-1.3 2 .1 1.2 1.2 1.4 2.3 1.4 3.8 0 7.7-.1 11.5-.1h10.1c.9 0 1.7-.3 2.6-.4.7-.1 1.5-.2 2.2-.1 1.5.1 3 .4 4.5.4.5 0 .9-.5 1.4-.8-.4-.4-.6-1-1.1-1.2-2.8-1-4.8-1.7-6.8-.1zM359.8 252c-1 1.3-1.9 2.5-2.8 3.8-.8 1.1-1.2 2.5-2.1 3.3-1.5 1.3-2.8 2.5-2.8 4.7 0 .3-.3.7-.5 1-2.1 2.3-4.3 4.5-6.5 6.7-1.1 1.1-2.2 2.2-3.4 3.3-1.2 1.1-2.2 2.4-4.1 2.4-.5 0-1.1.8-1.6 1.3-.5.6-.8 1.6-1.5 2-2.6 1.7-5.3 3.2-8 4.8-1.3.8-2.6 1.5-3.9 2.3-1.4.9-2.7 1.8-4.5 1-.4-.2-1.4.4-1.9.8-.9.6-1.6 1.7-2.5 2-2.6.8-5.3 1.4-7.9 2.1-.9.2-1.7.6-2.5.8-1.6.4-3.1.7-4.7 1-.7.1-1.8.1-1.9.5-.3.6-.1 1.5.2 2.2 1.7 3.7 1.8 7.3.2 11-.7 1.5-.8 3-.4 4.6.2.9.4 1.9.2 2.8-.8 2.7 0 5.2.6 7.8.1.5 1 1.2 1.2 1.1 1.9-.7 2.3.7 3 1.9 1.8 3 4.2 5.2 7.9 5.1 3.1 0 4.3-1.8 3.4-4.8-.7-2.2-1.2-4.4-1.8-6.6-1-3.7-1.8-7.5-2.8-11.2-.2-.7-.5-1.4-.8-2.1-.6-1.3-1.5-2-3-2.1-.9 0-2.3.3-2.5-1.1-.2-1.3 1-1.7 1.9-2.2.4-.2.9-.4 1.3-.5 2.5-.7 5.1-1.4 7.6-2.1 1.1-.3 2.2-.3 2.8.8.6 1.2-.2 2.1-1.2 2.7-2.1 1.4-2.2 1.9-1.5 4.3.9 3.2 1.7 6.4 2.5 9.6.9 3.3 1.7 6.6 2.6 10 .5 1.7 1.6 2.7 2.9 2.3 3.6-1.1 7.8-4.2 6.5-9.3-.1-.4-.1-.8-.1-1.3.1-1.5 1.3-2.3 2.7-1.5.8.4 1.4 1.1 2 1.7 2.8 3.3 6.5 4 9.8 1.7 1.9-1.3 2-2.3.9-4.3-1.2-2-2.3-4-3.5-6-2.3-4-4.6-8.1-7-12-1-1.7-1.9-1.8-3.8-1.3-.8.2-1.8-.1-2.6-.1.3-.9.6-1.9 1-2.8.1-.3.6-.5.9-.7 2.7-1.5 5.3-3 8-4.5.9-.5 2-.9 2.5.1.3.6.1 1.9-.4 2.5-2 2.7-2.1 2.6-.4 5.4.1.2.3.5.4.7 3 5.3 6 10.6 9 15.8 2 3.5 2.5 3.5 5.5.8 3.1-2.8 3.8-6.4 1.9-9.6-.3-.6-.3-1.8.1-2.3.3-.5 1.4-.6 2.1-.6.7 0 1.4.4 2 .8 3.6 2.4 5.7 2.4 9.2 0 2.4-1.6 2.5-3 .5-5l-14.1-13.8c-2.2-2.1-2.2-2-4.9-.9-.3.1-.6.3-.9.3-1.4.3-2.3-.7-1.9-2 .2-.6.7-1.1 1.1-1.5l4.6-4.6c.9-.9 1.9-1.9 2.9-2.7.4-.3 1.6-.5 1.8-.2.4.5.5 1.4.5 2.1 0 .4-.4.8-.7 1.2-.9 1.3-.7 2.4.4 3.5 2.7 2.7 5.5 5.4 8.2 8.2 2.4 2.4 4.7 4.8 7.1 7.3 1.2 1.2 2.2 1.4 3.3.5 3.6-2.9 4.1-7.2 1.4-11-.5-.7-1-1.4-1.3-2.2-.5-1.1-.1-1.8 1.2-1.7.8 0 1.5.4 2.3.5 1.2.2 2.4.6 3.6.4 2.3-.2 3.9-1.8 5.4-3.4 1.4-1.5 1.4-2.8-.3-4-1.9-1.3-3.9-2.5-5.9-3.6-3.5-2-7.1-3.9-10.5-6.1-3.5-2.3-3.3-2.3-6.7 0-.7.4-1.9.6-2.6.3-1.1-.5-.7-1.7-.2-2.5.7-1.1 1.6-2.1 2.2-3.3.3-.7.6-1.9.2-2.4-1.5-1.2-3-2.5-4.6-3.9zm49.7-182.7v-.2c-1.9 0-3.8-.1-5.7.1-.9.1-1.7.7-2.6 1.1.5.9.9 1.8 1.5 2.6.9 1 2 1.7 2.9 2.6 3.8 3.9 7.6 7.7 11.3 11.7 2.1 2.2 4.1 4.4 6 6.7 1.8 2.1 1.7 3.2-.1 5.3-.6.8-1.3 1.5-1.9 2.3-.2.4-.3 1.3-.1 1.4.4.3 1.1.4 1.5.2 1-.4 1.9-1 2.8-1.5 2.1-1.3 3.3-1.2 4.7.7 1.9 2.5 3.6 5.2 5.2 7.9s3.1 5.6 4.6 8.4c1.5 2.6 3 5.2 4.4 7.8l4.5 8.7c.6 1.2.5 2.3-.5 3.3-1.1 1.1-2.3 2.2-3.4 3.3-.5.5-.7 1 .2 1.3 3.1 1 7.1-1.8 7.1-5 0-3.6-.1-7.2-.2-10.7l-.3-21.7c0-.6.1-1.3.1-1.9.1-6.9.1-13.8.2-20.7 0-3.7 0-7.3.1-11 0-1.4-.6-2.2-1.9-2.6-2.8-.9-5.6-1.4-8.6-.7-1.4.3-2.9.1-4.4.1-.9 0-1.9-.2-2.8-.1-4.2.4-8.5-.6-12.7.7h-.2c-3.7-.1-7.7-.1-11.7-.1zm-296.9 68.5h-.2v2.8c0 1.6.8 2.4 2.4 2.5 1.1.1 2.2.5 3.3.6.7 0 1.4-.3 2.2-.4-.4-.6-.6-1.4-1.1-1.9-1-1.1-2.2-2.1-3.3-3.2-.7-.8-.8-1.7-.2-2.8 3.4-5.9 6.7-11.8 10.1-17.7 2.4-4.1 5.1-8 7.4-12.1 1.3-2.3 2.8-3.7 5.4-3.9 1-.1 1.3-.7 1-1.7-.2-.6-.4-1.2-.7-1.8-.6-1.3-.3-2.5.7-3.5 2-2.1 3.9-4.3 6-6.3 5.3-5.2 10.7-10.3 16.1-15.5.5-.5.7-1.2 1.1-1.8-.7-.3-1.4-.8-2.2-1-.4-.1-.9.1-1.4.1-1.8 0-3.6 0-5.4-.1h-2.4c-2.2.1-4.5.2-6.7.2-1.9 0-3.8 0-5.7.1-.7 0-1.5.1-2.2.2-6.6 0-13.2 0-19.8.1-2.1 0-3.9 1.3-4.1 3.1-.3 3.1-.5 6.2-.6 9.3 0 3 .2 6.1.3 9.2v6.3c0 3.2-.1 6.5-.1 9.7 0 .5.2 1 .3 1.6.1.6.1 1.3.1 1.9l-.3 8.4v14c-.2 1.3 0 2.5 0 3.6zm168.7 18.3c-.1 0-.2 0-.3-.1v-1.6c0-.5.1-1.1 0-1.6-.3-.8-.7-1.9-1.3-2.2-1.1-.5-1.9.4-2.4 1.5-.9 1.8-2.1 2-3.7.8-.4-.3-.7-.8-1.2-1-.7-.3-1.8-.9-2.1-.6-.5.4-.6 1.4-.8 2.2-.1.2 0 .5.1.8 1 2.9 1.3 6 3.3 8.5.4.5.3 1.8 0 2.4-.4 1-2.9 1.6-3.7.9-.5-.4-.7-1.4-.8-2.1-.3-1.4-.3-2.8-.6-4.2-.4-1.5-.8-3.1-1.4-4.5-.3-.9-1-1.7-1.5-2.5-.7.7-1.6 1.3-2.1 2.1-1.7 3-1.7 3-4.9 1.8-.7-.3-1.6-.1-2.4-.1 0 .9-.3 1.9.1 2.5 1.7 2.7 3.5 5.2 5.4 7.7.6.9 1.7 1.8.7 2.7-.9.8-2.3 1-3.5 1.4-.2.1-.9-.6-.9-.9-.2-3.6-2.8-6-4.2-8.9-.3-.7-1.4-1.5-2.2-1.5-.5 0-1.2 1.1-1.6 1.9-.5 1-.4 2.6-1.1 3.1-.7.5-2.2 0-3.3.1-.6.1-1.6.3-1.7.7-.2.6-.1 1.6.3 2 2.5 2.3 4.5 5.2 7.8 6.6.5.2 1.1 1.2 1 1.8-.1 1.4-1.1 2.4-2.5 2.7-.5.1-1.4-.6-1.6-1.1-1.5-3.4-4.8-5.1-6.9-7.9-.3-.4-1.4-.5-1.8-.3-.5.2-.8 1-.9 1.6-.1.7.1 1.5.2 2.2.1 1.2-.2 2-1.5 2.2-.5.1-1 .2-1.4.4-.6.4-1.7.9-1.7 1.3.1.8.6 1.6 1.2 2.2.7.6 1.9.8 2.6 1.5.8.7 1.6 1.6 1.8 2.5.2 1 .6 1.3 1.4 1.3.8-.1 1.7-.2 2.4-.6 1-.6 1.6-.8 2.5.3.4.6 1.7 1 2.3.8 1.4-.6 2.7-1.5 3.8-2.5 1.7-1.5 2.9-3.5 4.7-4.8 2.6-1.9 5.4-3.6 8.3-4.8 3.1-1.3 6.5-2.1 9.9-2.6 7.1-1.1 14 0 20.6 2.5 1.6.6 2.9 2.1 4.7 2.3.2 0 .4.3.6.5.8.5 1.6 1 2.3 1.6.6.4 1.2.8 1.8 1.3 1.4 1.5 2.8 3.1 4.3 4.5 2.3 2.2 5.1 3.3 8.3 3 1.1-.1 1.7-.5 2.2-1.5.2-.5.7-1 1.2-1.3 1.5-.7 3.1-1.2 4.6-2 1.7-.9 3.3-1.9 4.7-3.1 1.1-.9.8-2.3-.5-2.5-3-.4-4.2-1.8-3.6-4.9.1-.5-.6-1.6-1.2-1.8-.6-.2-1.5.3-2.1.7-.8.6-1.4 1.5-2 2.2-1.6 1.8-3.8 3.1-4.4 5.7-.1.3-1 .7-1.4.6-1.5-.2-2.8-1.6-2.9-2.8-.1-1.6 1.3-1.6 2.2-2.3 2.4-2 4.8-4.1 6.9-6.4 1-1.1.3-2.3-1.2-2.3-.7 0-1.4.1-2 .2-1.5.2-2.1-.2-2.4-1.8-.1-.4 0-.8-.2-1.1-.4-.7-1-1.9-1.5-1.9-.8.1-1.8.7-2.4 1.4-.9 1-1.3 2.4-2.2 3.5-1.2 1.5-1.9 3-1.8 4.9 0 .5-.4 1.2-.9 1.4-.9.4-3.2-.7-3.7-1.6-.7-1.4.2-2.3 1-3.2.8-.9 1.7-1.7 2.4-2.7 1-1.4 1.9-2.8 2.6-4.3.3-.7.2-1.7.2-2.5-.8 0-1.6-.2-2.4-.1-.6.1-1.1.4-1.6.6-1.8.8-2.2.6-2.8-1.3-.3-.9-.9-1.8-1.5-2.5s-1.2-.5-1.6.3c-1.7 3.4-2.9 6.9-2.6 10.8 0 .5-.6 1.6-.8 1.6-1.3-.2-2.9-.4-3.9-1.1-1.1-.8-.4-2 .3-2.9 2.2-2.6 2.3-5.8 2.9-8.9.1-.5-.3-1.5-.7-1.7-.4-.2-1.3.1-1.8.4-.7.3-1.2.9-1.8 1.3-1.2.8-2.2.5-2.9-.7-.2-.3-.2-.7-.5-.8-.7-.4-1.5-1-2.2-.9-.5.1-1.1 1.1-1.1 1.8-.1 3.3-.7 6.6.7 9.8.5 1.2-.1 2-1.3 2.2-.7.1-1.4.1-2 0-1.6-.2-2-.8-1.7-2.3.7-1.9 1-3.9 1.3-6zm73 68.7c-.3-.9-.4-1.6-.7-2.1-1.3-2.1-2.5-4.3-4-6.3-1.4-1.8-3.2-3.3-4.8-5-.5-.5-1.5-.9-1.5.2 0 2.2-1.2 4.3-.2 6.6.2.5.2 1.6-.2 1.9-1.2 1.2-1.1 2.7-1.3 4.3-.1.9-.5 1.7-.8 2.6-.8 2.2-1.5 4.5-2.4 6.6-.9 2.1-2.1 4.1-3.2 6.1-.2.3-.6.6-.9.8-.3.2-.6.5-.8.8-1.3 2.7-2.5 5.4-5 7.4-2.2 1.8-3.8 4.2-6 6.1-2.5 2.1-5.3 3.9-8 5.9-.4.3-1 .4-1.5.5-.5.2-1.1.4-1.6.6-3.1 1.4-6.3 2.9-9.4 4.3-1 .4-2.2.4-3.2.6-1.4.3-2.2 1.4-1.9 2.8.3 1.6 1.5 1.3 2.5 1.1 1.2-.3 2.4-.7 3.7-.9.6-.1 1.6 0 1.9.4.3.4.1 1.5-.3 1.9-1.3 1.5-1.3 3-.6 4.7.7 1.7 1.1 3.4 1.6 5.1.6 2 1 4 1.6 6 .5 1.7 2.3 2.5 3.2 1.4 1.4-1.6 3.3-2.9 3.1-5.6-.1-1.7 1.5-2.3 2.9-1.3.4.3.7.6 1.1.9 1.2 1.1 2.5 1.4 4.1 1 2.5-.6 3-1.5 1.7-3.8-1.8-3.3-3.6-6.6-5.5-9.8-.7-1.3-1.6-2.3-3.2-2.5-.6-.1-1.5-.8-1.6-1.4-.1-.6.5-1.5 1-1.9 1.6-1 3.3-1.9 5-2.7.4-.2 1.4 0 1.7.4.3.3.2 1.3-.1 1.7-.8 1.1-1 2.1-.3 3.2 2.2 3.8 4.4 7.7 6.8 11.4 1.1 1.8 2.8 1.7 4-.1 1.1-1.7 1.9-3.3 1-5.5-.3-.6 0-1.8.5-2.2.3-.3 1.5-.1 2.1.2 1.8 1.1 3.6 1.1 5.5.4 2.1-.8 2.5-2.2.9-3.8-2-2.1-4.1-4.3-6.2-6.3-2-1.9-3.7-4.5-7.2-3.8-.1 0-.7-1.2-.6-1.4 1.5-1.8 2.9-3.6 4.6-5.1 1.1-1 1.9-.3 2 1.3.1 1.1.2 2.4.8 3.1 3.1 3.3 6.3 6.5 9.6 9.7 1.2 1.2 2.5.9 3.4-.6 1.1-1.9 1.3-3.8 0-5.8-.4-.5-.6-1.5-.3-2 .3-.4 1.2-.5 1.9-.7 1.4-.3 2.8-.6 4.2-1 2.5-.7 2.3-3 .2-4.3-3.2-1.9-6.4-3.8-9.6-5.9-1.5-1-2.8-1.5-4.5-.4-.4.3-1.4.2-1.8-.1-.3-.2-.5-1.2-.2-1.7.9-1.7 1.8-3.5 2.9-5.1.3-.5 1.3-.9 1.9-.8.4 0 1 .9 1.1 1.5.3 1.4 1 2.3 2.3 3 3.2 1.8 6.3 3.7 9.3 5.6 1.2.8 2.3 1.5 3.6.8 1.3-.6 1.4-2 1.5-3.3.1-2-.9-3.4-2.3-4.7-1.3-1.2-1.1-1.6.6-2.1.4-.1.9-.7.9-.8-1.2-2.6-2.5-5.1-3.7-7.7-2.9-.3-5.6-2.6-8.8-.6-1.3.9-2.2 0-1.9-1.6.3-1.5.6-3 1.1-4.4.3-.7.9-1.6 1.5-1.8.6-.1 1.5.6 1.9 1.2.9 2.3 2.5 2.9 4.9 2.8zm-26.1-2.7c-1.2.5-2.7.8-2.9-.8-.1-1.1.3-2.6 1-3.2.5-.5 2.3-.4 3 .1 1.7 1.2 3.4 1.8 5.4 1.9.8 0 1.6.6 2.4.9.5.2 1.1.4 1.7.4 1.6 0 2.2-1.1 1.4-2.4-.5-.7-1.2-1.3-1.8-2-1.2-1.2-1-2.2.5-3 3.2-1.7 3.2-4.8.2-6.9-1.8-1.2-3.5-2.4-5.3-3.5-1.4-.8-2.8-1.6-4.3-2.1-2.3-.8-4.6-1.3-7-1.9-1.1-.3-2.2-.6-3.2-.6-1.2 0-1.5.9-1 2 .4.8.9 1.6 1 2.4.2 1.6.4 3.2.2 4.8-.2 3-.6 6-1.1 8.9-.3 1.5-.9 3-1.5 4.4-.9 2.3-1.9 4.6-2.8 6.8-.1.3-.4.6-.7.9-1.2 1.5-2.3 3.1-3.5 4.6-1.2 1.4-2.6 2.7-3.9 4-.6.6-1.2 1.2-1.9 1.6-1.4.8-2.9 1.5-4.3 2.2-.3.2-.6.5-.7.8-.6 1.8-1.1 3.6-1.7 5.4-.1.3 0 .7 0 1.1.4 4 .4 8 2 11.8.2.5.2 1.2.5 1.7.7 1.4 2 1.5 2.8.2.4-.6.6-1.2.9-1.9.7-1.6 2.1-2.1 3.6-1.4.4.2.7.5 1.1.6.6.1 1.6.4 1.9.1.4-.4.6-1.5.3-2-1.5-3.1-2.8-6.2-5.6-8.5-.5-.4-.9-1.4-.8-2.1.1-.9 2.2-2.2 3.2-1.8.6.2 1.1 1 1.4 1.6.5 1.1.8 2.3 1.3 3.3.7 1.3 1.5 2.5 2.3 3.8.4.7.7 1.4 1.3 2 .4.4 1.2.8 1.8.7.4-.1.8-.8 1.1-1.3.2-.5.2-1 .3-1.5.3-2.2.9-2.7 3.1-2.4.3 0 .5.2.8.1.7-.2 1.8-.4 1.9-.7.2-.7-.1-1.7-.5-2.2-.8-1.1-1.8-2-2.9-2.9-1.3-1.1-2.6-2.3-4.1-3.1-.9-.5-1.7-.9-1.5-2.1.1-1.1 1.6-2.8 2.6-2.6.7.1 1.4.9 1.9 1.5.6.7.8 1.6 1.4 2.2 1.5 1.7 3.1 3.3 4.8 4.8.6.5 1.6.8 2.4.7.4-.1.6-1.2.8-1.9.1-.3 0-.6 0-.9-.1-2.4.2-2.7 2.5-3.5.7-.2 1.8-.9 1.8-1.3-.1-.7-.7-1.6-1.4-2.1-1.5-1-3-1.9-4.6-2.7-1.2-.6-2.5-.9-3.8-1.4-.5-.2-1-.4-1.3-.8-.6-.9.1-3 1.1-3.7 1.1-.7 2-.2 3 .5 2.6 2 5.4 3.8 8.1 5.6.5.3 1.5.2 1.9-.1.4-.3.5-1.2.4-1.8 0-.6-.4-1.2-.6-1.8-.7-2-.4-2.8 1.7-3.4.4-.1.8-.3 1.2-.5 1.5-.9 1.5-2.4-.2-3-3-1-6-1.7-9.1-2.6zm65.1 31.4c3.9.1 6.8-1.5 8.5-5 1.1-2.3.6-3.4-1.9-4.1-3.5-1-7-2.1-10.5-3.2-.7-.2-1.3-.3-2-.5-1.6-.4-3.2-.8-4.9-1.3-1.1-.3-2.1-.5-3.2-.8-1.4-.3-2.5.2-3.4 1.4-.7.9-1.8 1.4-2.6 2.1-.6.5-1.4 1.1-1.7 1.8-.3.7 0 1.6.1 2.5.4 3 1.1 5.9-1.2 8.6-.9 1.1-.5 2.4.9 3.2 1.8 1.1 3.7 2 5.5 3.1 4.5 2.7 8.9 5.4 13.4 8 .6.4 2.2.3 2.5-.2 1.5-2.1 2.9-4.4 2-7.3-.7-2.3-2.5-3.5-4.1-5.1-.5-.5-.8-1.6-.7-2.3.1-.4 1.2-.7 1.9-.9.6-.1 1 0 1.4 0zm-221.3 10l.3.3c.2 1 .4 2 .7 2.9 1.3 3.9 2.1 4.1 5.6 2 5.6-3.3 11.3-6.6 17-9.8 2.4-1.4 2.5-2.6.3-4.4-2.4-2-2.7-3.5-1.5-5.6 1-1.7.9-3.5-.5-5-1.3-1.5-2.5-3-3.9-4.3-.4-.4-1.4-.5-2-.4-3 .8-6 1.7-9 2.5-3.8 1-7.5 2.1-11.3 2.9-2.5.5-3.4 1.8-2.4 4.1 1.7 3.9 5 5.8 9.2 5.4.4 0 .8-.1 1.1 0 .6.2 1.4.5 1.6 1 .2.5 0 1.4-.4 1.9-.7.9-1.7 1.6-2.4 2.6-.9 1.1-1.6 2.5-2.4 3.9zm104 124.1c3.8.2 4.7-.8 4.3-4.7-.1-.5-.1-1.1-.1-1.6l.3-10.1c0-1.3-.4-2-1.8-2-4 .1-8 .1-12 .2-1.6 0-3.2.2-4.7.2-5.1 0-10.2-.2-15.3-.2-.7 0-1.9.7-2.1 1.3-1 3-1.8 6-2.4 9-.2 1 .2 2.4.8 3.1 1.5 1.6 7.6 2 9.6.9 2.6-1.5 5.2-3.1 6.2-6.2.3-.9.8-1.7 1.2-2.6.8-1.6 2.7-1.9 3.7-.4.6.8 1.1 2 1.1 3 .2 5.5 5.8 10.6 11.2 10.1zm44.6-3.1c.6-.1 1.4-.1 2.2-.2 2.8-.5 3.7-1.7 3.4-4.5-.1-.9-.3-1.8-.5-2.6-.6-2.3-1.4-4.6-1.9-7-.6-2.8-.8-2.9-3.1-1.4-.1.1-.2.1-.3.2-1.5 1.6-3.3 1.5-5.3 1-1.1-.3-2.3-.5-3.4-.3-3.2.6-6.3.6-9.4 0-1.1-.2-2.3.1-3.4.1-1.8.1-3.6.2-5.5.2-.8 0-1.6-.2-2.4-.2-2.5.1-3 .7-3 3.2-.1 3.6-.2 7.3-.5 10.9-.1 1.8.3 2.6 1.9 3.4 2.3 1 7.4.1 9.3-1.6.8-.7 1.4-1.6 2.2-2.2 1.6-1.3 2.2-3 2.3-5 .1-1.1.2-2.4.7-3.4.3-.7 1.3-1.3 2.1-1.3.7-.1 1.5.5 2.1 1 .4.4.5 1.1.8 1.7 2.7 4.4 5.8 8 11.7 8zM304.1 199c-.6 0-1.3 0-1.9.1-2.8.4-3.7 1.6-3.5 4.4.1.7 0 1.4 0 2.1-.2 3.7-.4 7.4-.5 11.2 0 .5 0 1 .1 1.4 1.1 4.3.1 8.5-.1 12.7-.1 2 0 4 .5 5.9.5 1.9 2.4 2.1 3.7.6.4-.5.9-.9 1.4-1.2 1.6-.9 1.8-2.2.4-3.5-.9-.8-2-1.6-2.9-2.4-.8-.7-.8-2.1-.1-2.7 1-.8 1.4.2 1.9.7.9 1 1.8 2.1 2.6 3.2 1.2 1.5 2.6 1.3 3.4-.5.3-.7.7-1.3 1.1-1.9.9-1.3.6-2.5-.9-3.2-1.2-.5-2.4-.9-3.5-1.5-.9-.4-1.4-1.2-1-2.2.4-1 1.3-1.1 2.1-.7.7.3 1.2.8 1.8 1.2.9.6 1.7 1.2 2.7 1.6 1 .5 1.7.1 2-1 .2-.8.6-1.6 1.1-2.3.9-1.3.4-2.1-.8-2.7-.8-.4-1.7-.5-2.6-.7-.6-.1-1.3 0-1.9-.2-1-.3-1.8-.9-1.6-2 .2-1.1 1.2-1.4 2.2-1.2.7.1 1.3.6 2 .9.7.3 1.4.8 2.2.9 1.6.3 2.2-.3 2.3-2 0-.6 0-1.3.1-1.9.4-2.5-.7-3.4-3.1-2.7-.9.3-1.9.4-2.8.4-.9 0-1.7-.5-1.7-1.7s.8-1.6 1.8-1.6c.8 0 1.7.2 2.5.2 1 0 2 .1 2.9-.2.4-.1.8-1.3.7-1.5-.7-.9-.6-1.8-.4-2.8.3-1.2-.3-1.8-1.5-1.9-1.6-.2-3.1 0-4.4 1.2-1 1-2.3.8-2.6-.2-.2-2.2-1.8-2.4-3.7-2.3zm-13.9-20.7c.1.4.2.9.1 1.3-.3.7-.7 1.5-1.3 1.9-.3.2-1.5-.1-1.6-.4-.2-.8-.2-1.7 0-2.5.2-.6.9-1 1.3-1.5 1-1 .6-2.1.2-3.2-.4-1-1.2-1.1-2.2-.9-.8.1-1.6.1-2.4 0-1.7-.2-2.5.4-2.4 2.1 0 .7.3 1.4.5 2.1.3 1.1.6 2.3-.5 3-.4.3-1.3.3-1.7 0-1.1-.7-.9-1.9-.7-3 .2-1 .4-2.1.3-3.1-.1-1.3-.8-1.9-2.2-1.5-.8.2-1.6.3-2.3.4-1 0-2.1 0-2.5 1.2-.5 1.2-.1 2.3.8 3.2.4.5.9 1.1 1.1 1.7.4 1 .4 2-.9 2.5-1.1.4-1.9-.2-2.2-1.6-.2-1 0-2-.3-3-.3-.9-.8-1.9-1.5-2.4-.4-.3-1.4.3-2.2.5-.5.2-.9.5-1.4.6-2 .3-2.6 1.5-1.5 3.2.3.6 1 .9 1.4 1.4.7 1 1.7 2 1.8 3.1.2 1.7.2 1.9 2 1.8 1.3-.1 2.6.3 3.9.3 1.3.1 2.8.3 4-.1 2.7-.7 5.3-.9 8 .2.9.4 2 .5 2.9.3 1.2-.2 2.4-.7 3.6-1 1-.2 1.5-.7 1.5-1.8 0-.8.6-1.6 1.1-2.2.4-.5 1.3-.7 1.6-1.3.5-.9.8-2 .8-3 0-.3-1.2-.7-1.8-1-.5-.2-1.1-.4-1.6-.7-1.4-.9-2.8-.5-3.3.9-.3 1-.3 1.8-.4 2.5zm6.1 106.6c-.1 3.7.6 5.1 3.3 6.4 2.4 1.1 3.8.1 3.6-2.5 0-.4-.1-.8-.2-1.2-.8-3.4-1.6-6.8-2.5-10.1-.3-.9-.8-1.8-1.4-2.6-.8-1-1.7-.8-2.1.3-.4 1-.6 2.1-.6 3.2-.2 2.1-.1 4.3-.1 6.5zm-32.4 4.3c-.2 1.4 1.1 2.6 2.5 2.5 2.7-.2 3.7-1.5 3.5-4.6-.2-3.5-.5-7 .5-10.5.1-.3.2-.8 0-1.1-.2-.5-.4-1.1-.8-1.2-.4-.1-1.1.1-1.4.4-.6.7-1.1 1.5-1.4 2.4-.6 2-1.1 4.1-1.6 6.1-.3 2.1-.8 4.1-1.3 6zm35.4-103.4c1.7.1 3.4-1 5-2.3 1.1-.9.7-2.4-.6-3.1-.8-.4-1.6-.8-2.2-1.4-.8-.7-1.6-.7-2.1.1-.8 1.4-1.6 2.9-2.2 4.5-.6 1.5-.1 2.2 2.1 2.2zm-38.1-.8c3.2.1 3.9-.9 3-3-.4-1-1-1.9-1.6-2.7-.7-1.1-1.8-1.2-2.8-.3-.7.6-1.5 1.2-2.4 1.8-1.2.7-1.4 2.2-.1 2.8 1.5.7 3.1 1.1 3.9 1.4zm68.6 1.4c1.8-.3 3.7-.2 4.6-1.9.4-.8.2-2 .2-3.1-.9 0-2-.1-2.8.2-1 .4-1.8 1.1-2.6 1.7-.9.6-1.7 1.2-2.6 1.8 1.1.4 2.1.9 3.2 1.3zm117.5 90.1c-.6.4-1.2.6-1.5 1-.1.3.4 1 .8 1.3.9.9 1.9 1.8 2.9 2.7.8.8 1.6 1 2.4 0 .9-1.1 1-2.8.1-3.3-1.5-.6-3-1-4.7-1.7zM307.2 186c.4-.6.7-1 1-1.3-.3-.2-.7-.6-.9-.5-.4.1-.7.5-1 .7.2.3.5.6.9 1.1zM215 454.4v-16.2c0-1.7.4-2.2 2.1-2.2h17c2.4 0 4.3 1.2 5.7 2.9 2.1 2.4 4.1 4.9 3.5 8.4-.4 2.6-1.5 4.9-3.8 6.5-1.9 1.3-1.8 2.2-.3 3.9 1.6 2 2.8 4.3 4.2 6.5 1.2 1.9 2.5 3.8 3.6 5.7.4.7.5 1.5.8 2.2-.8.3-1.5.6-2.3.7-.9.1-1.9 0-2.8 0-5 .1-4.4-.4-6.9-4.5-1.8-3-3.3-6.2-5.9-8.7-1.1-1.1-2.4-1.7-4-1.6-1.3.1-1.9.9-1.8 2.3l.3 10.6c0 1.2-.7 1.8-1.7 1.8-2.1.1-4.1.1-6.2.1-1.4-.1-1.6-1.1-1.6-2.3.1-5.2.1-10.7.1-16.1zm13.1-12h-.6c-2.6-.1-3.3.7-3.1 3.3.1.9 0 1.8-.2 2.7-.2 1.3.3 2.3 1.6 2.4 1.5.1 3.1.1 4.5-.1 2.1-.4 3.3-2 3.2-3.9-.1-2.9-.5-3.5-3.3-4.1-.6-.2-1.3-.3-2.1-.3zM368.1 521.9c-3.7 0-6.4-.1-9 0-3.2.1-4.2-1-3.7-4.1.2-1.6.1-3.3.1-4.9-.1-7.6-.3-15.2-.5-22.8-.1-2.2.8-3.2 3.3-3.2 2.6-.1 5.3 0 7.9-.1h7.4c6.6-.1 11.9 2.7 15.6 8 1.2 1.7 1.7 4 1.9 6.1.5 6.8-.5 13.3-6.6 17.6-1.6 1.2-3.6 2.2-5.5 2.5-4 .6-8 .7-10.9.9zm2.4-28.5v.1H367c-.2 0-.4 0-.6.1-1.8.3-2.6 1.2-2.6 3l.3 15.2c.1 2.6 1.2 3.5 3.8 3.2 1.6-.1 3.3-.1 4.9-.4 1.7-.3 3.4-.8 4.8-1.6 4-2.3 4.4-6.4 4.3-10.4-.1-4-2.7-7.4-6.4-8.5-1.6-.5-3.3-.5-5-.7zM417.4 522.6c-4-.5-7.7-1.1-11.1-3.1-2.9-1.8-4.8-4.4-6-7.5-.7-1.9.3-3.5 2.3-3.6 2.3-.1 4.5.1 6.2 2.3 3.5 4.7 8.4 5.1 13.7 4 1.4-.3 2.8-.9 2.8-2.7 0-1.3-1.2-2.5-3-2.9-2.8-.7-5.6-1.2-8.3-1.9-.9-.2-1.8-.6-2.6-1-.9-.4-1.8-.9-2.8-1.1-3.6-.7-5.9-2.9-7.2-6.2-1.4-3.8.2-6.9 2.8-9.6 3.1-3.2 7.2-4 11.4-3.9 3.5 0 7.1.5 10.4 1.7 3.8 1.3 6.1 4.7 6.9 8.7.4 2.2-.6 3-2.8 2.9-2.7-.1-4.7-1-6-3.5-.4-.7-1.2-1.4-2-1.6-3.3-1.1-6.7-1.9-10.2-.8-1.2.4-2.3 1-2.3 2.4 0 1.5.9 2.3 2.2 2.7 2.9.8 5.8 1.3 8.6 2.2 3.2 1 6.4 2.1 9.4 3.5 2.2 1 3.7 3 4.3 5.3.8 2.6.2 5.2-1.3 7.4-1.7 2.7-4.2 4.6-7.5 5.1-2.8.2-5.3.7-7.9 1.2zM280.1 487.1c3.5-.6 7.4.6 10.7 2.9 2.2 1.5 4.1 3.7 5.6 5.9 1.9 3 3.3 6.3 2.7 10.2-1 6.8-3.8 12.3-10.3 15.4-6.6 3.2-13.1 2.9-19.4-.5-4-2.2-6.9-5.7-8.1-10.3-.3-1.3-.7-2.5-1.1-3.8-.1-.5-.3-.9-.2-1.4.9-6.9 3.3-12.8 10-16.1 4.6-2.3 4.6-2.3 10.1-2.3zm-10.8 19.8c-.1 2 1.6 4.8 3.8 7.2 2.1 2.3 5 2.2 7.8 2.2 2.5 0 4.4-1.1 6-3 3.4-4.1 3.4-8.7 1.9-13.3-1.8-5.4-8.2-7.9-13.2-5.3-4.3 2.1-6.1 5.9-6.3 12.2zM323.2 487.2c3.6.2 7.3 0 10.9.6 3.4.6 6.3 2.5 7.9 5.8 2 4 0 8.7-4.2 10.5-4.2 1.8-4.3 2.5-.8 5.6.8.7 1.7 1.5 2.1 2.5 1.2 2.5 2.3 5 3.1 7.6.7 2.2-.2 3-2.5 2.7-1.1-.1-2.3-.1-3.4.1-3 .4-4.5-.9-4.9-3.9-.3-2.3-.7-4.6-1.5-6.8-.9-2.8-4.9-4.5-7.7-3.5-1.4.5-1.6 1.7-1.6 3 .1 2.6.3 5.3.4 7.9.1 3.1-1 4-4 3.5-.7-.1-1.5-.1-2.2-.1-2 0-3-.9-3-2.8 0-4.6.2-9.2.2-13.7 0-4.9-.1-9.7-.3-14.6-.1-2.7.7-4 3.5-4.1 2.7-.1 5.5 0 8.2 0-.2-.1-.2-.2-.2-.3zm2.8 7v.1h-1.9c-2.6 0-3.6.8-3.6 3.5 0 .8.1 1.6.2 2.3.3 1.2 1.1 1.8 2.4 1.8 1.6 0 3.3.1 4.9-.1 1-.1 2.1-.4 3-.8 1.6-.7 2.4-2.2 2.2-3.7-.3-1.6-1.3-2.6-3-2.8-1.4 0-2.8-.2-4.2-.3zM204 473h-1.4c-3.1 0-3 0-4.2-2.8-.7-1.7-1.6-3.3-2.5-4.9-.3-.5-1.1-.9-1.7-.9-4.6-.1-9.3-.1-13.9 0-.6 0-1.3.7-1.7 1.2-.6.9-.9 2-1.4 3-.3.7-.6 1.4-.7 2.1-.1 1.5-.9 2.2-2.3 2.3-2.1 0-4.1.1-6.2 0-1.6-.1-1.9-1-1.3-2.4 1.4-3.1 2.7-6.2 4.1-9.3 1-2.3 2.2-4.6 3.2-7 1.3-2.9 2.5-5.8 3.7-8.7.3-.7.7-1.4 1.1-2.1.4-.8.7-1.6 1.1-2.4.7-1.5 1.3-3 2.1-4.4.2-.4.9-.7 1.3-.7 2.4-.1 4.9-.1 7.3 0 .5 0 1.3.6 1.5 1.1 1 2 1.9 4.1 2.9 6.1 1.2 2.6 2.5 5.1 3.8 7.6 1 2.1 1.8 4.2 2.8 6.3 1.2 2.6 2.5 5.1 3.8 7.6.3.6.5 1.3.8 1.9.5 1 1.1 2 1.6 3 .3.7.8 1.7.5 2.3-.2.5-1.3.8-2.1 1-.6.3-1.4.2-2.2.1 0 .1 0 0 0 0zm-16.5-15.8v.1h2.7c1.9-.1 2.3-.9 1.4-2.5-.9-1.7-1.8-3.6-2.7-5.3-.3-.6-.6-1.2-1-1.6-.9-1-1.7-.7-2.2.5-.9 2.3-1.7 4.6-2.7 6.9-.5 1.1-.1 1.8 1 1.9 1.1.1 2.3 0 3.5 0zM131.6 507v-14.1c0-2.7.8-3.5 3.5-3.6 3.1-.1 6.2-.3 9.3-.2 3.5.1 7 .5 10.5 1 3.9.6 7.6 5.1 7.5 9.1 0 .9-.4 1.9-.9 2.6-1.5 2.2-3.3 4.2-6.3 4.7-1.8.3-2.1 1.9-.8 3.2.4.4.8.7 1.2 1 1.8 1.3 3.1 2.8 3.8 4.9.6 1.9 1.4 3.8 2 5.7.7 2-.2 3-2.3 2.8-1.2-.1-2.4-.1-3.6 0-2.9.2-4.3-.9-4.7-3.8-.3-2.1-.8-4.2-1.4-6.3-1.2-3.8-4.3-4.4-7.6-3.9-1.5.2-1.9 1.4-1.9 2.7.1 2.7.3 5.5.5 8.2.2 2-.7 3.1-2.7 3.2-1.1.1-2.1.1-3.2.1-2.1 0-3-1.1-3-3.2 0-4.7 0-9.4.1-14.1-.1 0-.1 0 0 0zm14.1-11.2v.2c-.9 0-1.8-.1-2.7 0-2.4.2-3.2 1.3-3.1 3.8.1 2.3 1.2 3.7 3.4 3.7 1.8 0 3.7-.1 5.5-.3 1.7-.2 3.4-1.9 3.6-3.3.1-1.4-1.1-3.1-3-3.6-1.1-.4-2.4-.4-3.7-.5zM189.8 523.7h-13c-1.8 0-2.5-.7-2.5-2.5.1-1.7.3-3.5.3-5.2 0-1.7-.4-3.3-.5-5-.1-1.5-.1-2.9-.1-4.4v-13.5c0-3.6.8-4.4 4.3-4.4h19.5c1 0 2-.2 3-.4 1.7-.3 2.8.3 3.2 2 .1.3.1.6.1.9.5 3.7-.2 4.3-3.9 4.2-4.8-.2-9.6-.1-14.4 0-2.2 0-3.3 1.5-3.2 3.5.1 2.2 1.2 3.2 3.5 3.2 3.6-.1 7.2-.2 10.7-.3 2-.1 2.9.9 2.7 2.9-.6 4.9-.9 4.6-4.8 4.1-2.8-.3-5.7-.1-8.5-.1-2.5.1-3.6 1.4-3.4 3.9.2 3.5.9 4.3 4.4 4.2 4.7-.1 9.4-.3 14-.6 3.9-.2 5.8 2.3 4.2 5.9-.5 1.1-1.5 1.4-2.6 1.4h-13v.2zM294 454.4v-16c0-2 .4-2.4 2.4-2.4h21.8c2.1 0 2.8.5 2.9 1.9.2 2.5-.8 4.3-2.7 4.5-.9.1-1.9 0-2.8 0h-9.5c-2.2 0-2.9.8-2.8 3 .1.8.1 1.6-.1 2.4-.4 2.1 0 2.6 2 2.7 3.1.1 6.2 0 9.3.1 1.1 0 2.1 0 3.2.1 1.4.2 2.3.9 2.4 2.5.1 2.3-.5 3.8-2 4.2-.7.2-1.6.3-2.3.3-3.2 0-6.4 0-9.7-.1-2.3 0-3.1.8-2.9 3.1.1 1.1.1 2.1 0 3.2-.1 1.9.6 2.8 2.5 2.8 3.6 0 7.3 0 10.9-.1 3.1-.1 4.2.9 4.3 3.9.1 2-.4 2.6-2.4 2.6-4.5.1-9.1.1-13.6.1h-8.7c-2 0-2.4-.5-2.4-2.5.2-5.5.2-10.9.2-16.3zM365.8 454.5v-16.3c0-1.8.4-2.2 2.1-2.2h22.3c1.7 0 2.1.5 2.1 2.2 0 .5 0 .9-.1 1.4-.2 2.3-.9 2.9-3.2 2.9-3.9 0-7.8-.1-11.7-.1-2.4 0-2.9.7-2.7 3.1.1.8 0 1.7-.1 2.5-.2 1.6.2 2.4 1.9 2.4 3.3.1 6.5 0 9.8.1 1.1 0 2.1 0 3.1.2 1.3.2 2.4.8 2.4 2.3 0 1.5.1 3.2-1.6 4-.9.4-2 .6-3 .6-3.3.1-6.5 0-9.8 0-2.3 0-3 .9-2.8 3.2.1 1 .1 2.1 0 3.1-.1 1.8.5 2.6 2.3 2.6 3.9 0 7.8-.1 11.7 0 1.1 0 2.8.3 3 .9.6 1.4.5 3.2.4 4.7 0 .3-1.4.8-2.1.8-6.6.1-13.2 0-19.8 0-4.2 0-4.4.5-4.3-4.3.2-4.6.1-9.3.1-14.1zM233.8 524.2c-5 .4-9.5-1.1-13.2-4.3-3.3-2.8-5.3-6.5-6.1-10.9-1-5.7.6-10.7 4.2-15 4.3-5.2 10.1-7.2 16.8-6.6 6.2.5 10.6 4.1 14 9 .3.5.6 1 .8 1.5.5 1.5-.1 2.4-1.7 2.4-1.3 0-2.7.1-3.9-.1-.9-.2-1.9-.6-2.4-1.3-3-4.2-7.2-4.9-11.8-4.2-2.3.4-3.9 2.1-5.2 3.9-4.8 6.6-1.2 15.9 5.5 18.3 3.6 1.3 8.6-.3 11.4-3.6 1.5-1.9 6-2.7 8-1.4 1.1.7.9 1.6.4 2.5-3.8 6-8.5 10.3-16.2 9.9-.2-.1-.4-.1-.6-.1zM417.1 436h16.2c1.2 0 2.6 0 2.6 1.7.1 2.3-.3 4.4-2.2 4.4-2.6.1-5.2.2-7.7.2-.8 0-1.6-.1-2.4 0-1.2.2-1.9.9-1.9 2.2 0 7.5.1 15 .2 22.5 0 1.3 0 2.5.1 3.8 0 1.1-.5 1.9-1.6 2-2.1.1-4.2.2-6.3.1-1.3-.1-1.7-.9-1.7-2.2.1-8.7.1-17.3.2-26 0-1.6-.9-2.4-2.6-2.4-2.8 0-5.6.1-8.4.1-1.1 0-2.3.1-2.7-1.2-.4-1.4-.5-3-.4-4.4 0-.4 1.5-.8 2.3-.8h16.3zM268.4 436h15.7c1.3 0 2.9-.2 3.2 1.8.3 2.3-.9 4.3-2.8 4.5-2.5.2-4.9.1-7.4.2-.7 0-1.5 0-2.2.1-1.1.2-1.8 1-1.7 2.1 0 7.9.1 15.8.2 23.7 0 .8 0 1.7.1 2.5.1 1.2-.5 2-1.7 2.1-2.1.1-4.2.1-6.3.1-1 0-1.6-.7-1.6-1.8.1-8.8.1-17.5.2-26.3 0-1.7-.6-2.5-2.4-2.5-3 0-5.9.1-8.9.1-1 0-2.2 0-2.5-1.2-.3-1.5-.3-3.1-.2-4.6 0-.3 1.3-.7 2.1-.7 5.3-.1 10.8-.1 16.2-.1zM148.2 436h16.2c2.3 0 2.9.5 2.9 2.4-.1 3-1 4.1-3.2 4.1-2.8-.1-5.7-.1-8.5-.2-1.4 0-2.4.9-2.3 2.4 0 8.7.1 17.4.2 26.1 0 1.4-.6 2.1-1.9 2.2-1.7.1-3.5.1-5.2 0-1.3-.1-1.9-.8-1.9-2.2.1-7.9.1-15.8.1-23.8 0-.4-.1-.8 0-1.1.7-2.8-.6-3.5-3.3-3.5-2.6 0-5.2.1-7.8 0-3.1-.1-3.9-1-4-4.1 0-1.8.4-2.3 2.2-2.3h16.5zM330.2 454.4v-16.3c0-1.3.6-2 1.7-2 1.9-.1 3.8-.1 5.7 0 1.1 0 1.7.7 1.7 1.9-.1 8.7-.1 17.4-.2 26.1 0 1.8.9 2.6 2.7 2.6 4.5-.1 9.1-.2 13.6-.1 2.2 0 4 3.3 2.9 5.3-.2.4-.8.8-1.3 1-.7.2-1.5.2-2.2.2-6.7 0-13.4 0-20.1.1h-1.3c-3-.4-3.1-.6-3.1-3.6 0-5.2 0-10.2-.1-15.2z"/>
  <path fill="#fff" d="M333.7 209.9c-1.4.3-2.9.6-4.3.9-1.6.3-2.3-.2-2.4-1.8-.1-.6 0-1.2 0-1.7.1-1.3.9-1.8 2-1.6 1.9.4 3.9 1 5.8 1.5.1 0 .2.1.3.1.5.7 1 1.4 1.5 2-.7.3-1.5.5-2.2.8-.2.1-.4 0-.6 0 0 0-.1-.1-.1-.2z"/>
</svg>
